<mxfile host="app.diagrams.net" modified="2023-05-15T06:23:36.153Z" agent="Mozilla/5.0 (Windows NT 10.0; Win64; x64; rv:109.0) Gecko/20100101 Firefox/113.0" etag="ftKAZZ9V9unHG-Ghg-QY" version="21.3.0" type="github">
  <diagram name="Page-1" id="UMNcfKIWc_uaRE4TbRjD">
    <mxGraphModel dx="1705" dy="1933" grid="1" gridSize="10" guides="1" tooltips="1" connect="1" arrows="1" fold="1" page="1" pageScale="1" pageWidth="850" pageHeight="1100" math="0" shadow="0">
      <root>
        <mxCell id="0" />
        <mxCell id="1" parent="0" />
        <mxCell id="EYCL_kgDiC81q_rOXNcm-132" value="" style="rounded=1;whiteSpace=wrap;html=1;" vertex="1" parent="1">
          <mxGeometry x="1772.5" y="770" width="60" height="60" as="geometry" />
        </mxCell>
        <mxCell id="EYCL_kgDiC81q_rOXNcm-127" value="" style="shape=table;startSize=0;container=1;collapsible=0;childLayout=tableLayout;fillColor=#FFFFFF;" vertex="1" parent="1">
          <mxGeometry x="1897.5" y="820" width="40" height="20" as="geometry" />
        </mxCell>
        <mxCell id="EYCL_kgDiC81q_rOXNcm-128" value="" style="shape=tableRow;horizontal=0;startSize=0;swimlaneHead=0;swimlaneBody=0;strokeColor=inherit;top=0;left=0;bottom=0;right=0;collapsible=0;dropTarget=0;fillColor=#FFFFFF;points=[[0,0.5],[1,0.5]];portConstraint=eastwest;" vertex="1" parent="EYCL_kgDiC81q_rOXNcm-127">
          <mxGeometry width="40" height="20" as="geometry" />
        </mxCell>
        <mxCell id="EYCL_kgDiC81q_rOXNcm-129" value="" style="shape=partialRectangle;html=1;whiteSpace=wrap;connectable=0;strokeColor=inherit;overflow=hidden;fillColor=#FFFFFF;top=0;left=0;bottom=0;right=0;pointerEvents=1;" vertex="1" parent="EYCL_kgDiC81q_rOXNcm-128">
          <mxGeometry width="20" height="20" as="geometry">
            <mxRectangle width="20" height="20" as="alternateBounds" />
          </mxGeometry>
        </mxCell>
        <mxCell id="EYCL_kgDiC81q_rOXNcm-130" value="" style="shape=partialRectangle;html=1;whiteSpace=wrap;connectable=0;strokeColor=inherit;overflow=hidden;fillColor=#FFFFFF;top=0;left=0;bottom=0;right=0;pointerEvents=1;" vertex="1" parent="EYCL_kgDiC81q_rOXNcm-128">
          <mxGeometry x="20" width="20" height="20" as="geometry">
            <mxRectangle width="20" height="20" as="alternateBounds" />
          </mxGeometry>
        </mxCell>
        <mxCell id="EYCL_kgDiC81q_rOXNcm-133" value="" style="shape=table;startSize=0;container=1;collapsible=0;childLayout=tableLayout;fillColor=#FFFFFF;" vertex="1" parent="1">
          <mxGeometry x="1897.5" y="550" width="40" height="20" as="geometry" />
        </mxCell>
        <mxCell id="EYCL_kgDiC81q_rOXNcm-134" value="" style="shape=tableRow;horizontal=0;startSize=0;swimlaneHead=0;swimlaneBody=0;strokeColor=inherit;top=0;left=0;bottom=0;right=0;collapsible=0;dropTarget=0;fillColor=#FFFFFF;points=[[0,0.5],[1,0.5]];portConstraint=eastwest;" vertex="1" parent="EYCL_kgDiC81q_rOXNcm-133">
          <mxGeometry width="40" height="20" as="geometry" />
        </mxCell>
        <mxCell id="EYCL_kgDiC81q_rOXNcm-135" value="" style="shape=partialRectangle;html=1;whiteSpace=wrap;connectable=0;strokeColor=inherit;overflow=hidden;fillColor=#FFFFFF;top=0;left=0;bottom=0;right=0;pointerEvents=1;" vertex="1" parent="EYCL_kgDiC81q_rOXNcm-134">
          <mxGeometry width="20" height="20" as="geometry">
            <mxRectangle width="20" height="20" as="alternateBounds" />
          </mxGeometry>
        </mxCell>
        <mxCell id="EYCL_kgDiC81q_rOXNcm-136" value="" style="shape=partialRectangle;html=1;whiteSpace=wrap;connectable=0;strokeColor=inherit;overflow=hidden;fillColor=#FFFFFF;top=0;left=0;bottom=0;right=0;pointerEvents=1;" vertex="1" parent="EYCL_kgDiC81q_rOXNcm-134">
          <mxGeometry x="20" width="20" height="20" as="geometry">
            <mxRectangle width="20" height="20" as="alternateBounds" />
          </mxGeometry>
        </mxCell>
        <mxCell id="EYCL_kgDiC81q_rOXNcm-137" value="&lt;font style=&quot;font-size: 8px;&quot;&gt;has / is of&lt;/font&gt;" style="text;html=1;align=center;verticalAlign=middle;resizable=0;points=[];autosize=1;strokeColor=none;fillColor=none;fontStyle=1" vertex="1" parent="1">
          <mxGeometry x="1887.5" y="830" width="60" height="30" as="geometry" />
        </mxCell>
        <mxCell id="EYCL_kgDiC81q_rOXNcm-138" value="&lt;font style=&quot;font-size: 8px;&quot;&gt;has / is of&lt;/font&gt;" style="text;html=1;align=center;verticalAlign=middle;resizable=0;points=[];autosize=1;strokeColor=none;fillColor=none;fontStyle=1" vertex="1" parent="1">
          <mxGeometry x="1887.5" y="560" width="60" height="30" as="geometry" />
        </mxCell>
        <mxCell id="EYCL_kgDiC81q_rOXNcm-139" value="Many2Many" style="text;html=1;align=center;verticalAlign=middle;resizable=0;points=[];autosize=1;strokeColor=none;fillColor=none;fontStyle=1" vertex="1" parent="1">
          <mxGeometry x="1757.5" y="740" width="90" height="30" as="geometry" />
        </mxCell>
        <mxCell id="EYCL_kgDiC81q_rOXNcm-154" value="" style="endArrow=blockThin;startArrow=blockThin;html=1;rounded=0;jumpSize=6;strokeColor=#990099;startFill=1;endFill=1;" edge="1" parent="1">
          <mxGeometry width="50" height="50" relative="1" as="geometry">
            <mxPoint x="1897.5" y="810" as="sourcePoint" />
            <mxPoint x="1937.5" y="810" as="targetPoint" />
          </mxGeometry>
        </mxCell>
        <mxCell id="EYCL_kgDiC81q_rOXNcm-155" value="" style="endArrow=blockThin;startArrow=blockThin;html=1;rounded=0;jumpSize=6;strokeColor=#990099;startFill=1;endFill=1;" edge="1" parent="1">
          <mxGeometry width="50" height="50" relative="1" as="geometry">
            <mxPoint x="1897.5" y="540" as="sourcePoint" />
            <mxPoint x="1917.5" y="540" as="targetPoint" />
          </mxGeometry>
        </mxCell>
        <mxCell id="EYCL_kgDiC81q_rOXNcm-162" value="" style="shape=table;startSize=0;container=1;collapsible=0;childLayout=tableLayout;fillColor=#FFFFFF;" vertex="1" parent="1">
          <mxGeometry x="1897.5" y="740" width="40" height="20" as="geometry" />
        </mxCell>
        <mxCell id="EYCL_kgDiC81q_rOXNcm-163" value="" style="shape=tableRow;horizontal=0;startSize=0;swimlaneHead=0;swimlaneBody=0;strokeColor=inherit;top=0;left=0;bottom=0;right=0;collapsible=0;dropTarget=0;fillColor=#FFFFFF;points=[[0,0.5],[1,0.5]];portConstraint=eastwest;" vertex="1" parent="EYCL_kgDiC81q_rOXNcm-162">
          <mxGeometry width="40" height="20" as="geometry" />
        </mxCell>
        <mxCell id="EYCL_kgDiC81q_rOXNcm-164" value="" style="shape=partialRectangle;html=1;whiteSpace=wrap;connectable=0;strokeColor=inherit;overflow=hidden;fillColor=#FFFFFF;top=0;left=0;bottom=0;right=0;pointerEvents=1;" vertex="1" parent="EYCL_kgDiC81q_rOXNcm-163">
          <mxGeometry width="20" height="20" as="geometry">
            <mxRectangle width="20" height="20" as="alternateBounds" />
          </mxGeometry>
        </mxCell>
        <mxCell id="EYCL_kgDiC81q_rOXNcm-165" value="" style="shape=partialRectangle;html=1;whiteSpace=wrap;connectable=0;strokeColor=inherit;overflow=hidden;fillColor=#FFFFFF;top=0;left=0;bottom=0;right=0;pointerEvents=1;" vertex="1" parent="EYCL_kgDiC81q_rOXNcm-163">
          <mxGeometry x="20" width="20" height="20" as="geometry">
            <mxRectangle width="20" height="20" as="alternateBounds" />
          </mxGeometry>
        </mxCell>
        <mxCell id="EYCL_kgDiC81q_rOXNcm-166" value="&lt;font style=&quot;font-size: 8px;&quot;&gt;has / is of&lt;/font&gt;" style="text;html=1;align=center;verticalAlign=middle;resizable=0;points=[];autosize=1;strokeColor=none;fillColor=none;fontStyle=1" vertex="1" parent="1">
          <mxGeometry x="1887.5" y="750" width="60" height="30" as="geometry" />
        </mxCell>
        <mxCell id="EYCL_kgDiC81q_rOXNcm-167" value="" style="endArrow=blockThin;startArrow=blockThin;html=1;rounded=0;jumpSize=6;strokeColor=#990099;startFill=1;endFill=1;" edge="1" parent="1">
          <mxGeometry width="50" height="50" relative="1" as="geometry">
            <mxPoint x="1917.5" y="730" as="sourcePoint" />
            <mxPoint x="1937.5" y="730" as="targetPoint" />
          </mxGeometry>
        </mxCell>
        <mxCell id="EYCL_kgDiC81q_rOXNcm-168" value="" style="endArrow=blockThin;startArrow=blockThin;html=1;rounded=0;jumpSize=6;strokeColor=#990099;startFill=1;endFill=1;" edge="1" parent="1">
          <mxGeometry width="50" height="50" relative="1" as="geometry">
            <mxPoint x="1897.5" y="730" as="sourcePoint" />
            <mxPoint x="1917.5" y="730" as="targetPoint" />
          </mxGeometry>
        </mxCell>
        <mxCell id="EYCL_kgDiC81q_rOXNcm-183" value="&lt;div&gt;Payroll&lt;/div&gt;" style="ellipse;whiteSpace=wrap;html=1;fontStyle=1" vertex="1" parent="1">
          <mxGeometry x="1210" y="410" width="140" height="60" as="geometry" />
        </mxCell>
        <mxCell id="EYCL_kgDiC81q_rOXNcm-185" value="PayRateUSDHourlyOrWeekly&lt;div&gt;(payRateUSDID)&lt;br&gt;&lt;/div&gt;" style="ellipse;whiteSpace=wrap;html=1;fontStyle=1" vertex="1" parent="1">
          <mxGeometry x="1450" y="450" width="220" height="60" as="geometry" />
        </mxCell>
        <mxCell id="EYCL_kgDiC81q_rOXNcm-186" value="&lt;div&gt;Duration&lt;/div&gt;&lt;div&gt;(durationID)&lt;br&gt;&lt;/div&gt;" style="ellipse;whiteSpace=wrap;html=1;fontStyle=1" vertex="1" parent="1">
          <mxGeometry x="2330" y="130" width="140" height="60" as="geometry" />
        </mxCell>
        <mxCell id="EYCL_kgDiC81q_rOXNcm-426" style="edgeStyle=none;rounded=0;orthogonalLoop=1;jettySize=auto;html=1;" edge="1" parent="1" source="EYCL_kgDiC81q_rOXNcm-189" target="EYCL_kgDiC81q_rOXNcm-186">
          <mxGeometry relative="1" as="geometry" />
        </mxCell>
        <mxCell id="EYCL_kgDiC81q_rOXNcm-189" value="&lt;div&gt;DurationInMonthsAndYears&lt;/div&gt;&lt;div&gt;(durationID)&lt;br&gt;&lt;/div&gt;" style="ellipse;whiteSpace=wrap;html=1;fontStyle=1" vertex="1" parent="1">
          <mxGeometry x="2290" y="10" width="220" height="60" as="geometry" />
        </mxCell>
        <mxCell id="EYCL_kgDiC81q_rOXNcm-425" style="edgeStyle=none;rounded=0;orthogonalLoop=1;jettySize=auto;html=1;" edge="1" parent="1" source="EYCL_kgDiC81q_rOXNcm-190" target="EYCL_kgDiC81q_rOXNcm-186">
          <mxGeometry relative="1" as="geometry" />
        </mxCell>
        <mxCell id="EYCL_kgDiC81q_rOXNcm-190" value="&lt;div&gt;DurationInHoursOrDays&lt;/div&gt;&lt;div&gt;(durationID)&lt;br&gt;&lt;/div&gt;" style="ellipse;whiteSpace=wrap;html=1;fontStyle=1" vertex="1" parent="1">
          <mxGeometry x="2290" y="250" width="220" height="60" as="geometry" />
        </mxCell>
        <mxCell id="EYCL_kgDiC81q_rOXNcm-202" value="&lt;div&gt;InjuryOrIllness&lt;/div&gt;" style="ellipse;whiteSpace=wrap;html=1;fontStyle=1" vertex="1" parent="1">
          <mxGeometry x="450" y="250" width="140" height="60" as="geometry" />
        </mxCell>
        <mxCell id="EYCL_kgDiC81q_rOXNcm-257" style="edgeStyle=none;rounded=0;orthogonalLoop=1;jettySize=auto;html=1;endArrow=oval;endFill=1;exitX=1;exitY=1;exitDx=0;exitDy=0;" edge="1" parent="1" source="EYCL_kgDiC81q_rOXNcm-208" target="EYCL_kgDiC81q_rOXNcm-202">
          <mxGeometry relative="1" as="geometry" />
        </mxCell>
        <mxCell id="EYCL_kgDiC81q_rOXNcm-208" value="iiDate&lt;br&gt;(dateID)" style="ellipse;whiteSpace=wrap;html=1;fontStyle=1" vertex="1" parent="1">
          <mxGeometry x="290" y="10" width="140" height="60" as="geometry" />
        </mxCell>
        <mxCell id="EYCL_kgDiC81q_rOXNcm-258" style="edgeStyle=none;rounded=0;orthogonalLoop=1;jettySize=auto;html=1;exitX=1;exitY=0.5;exitDx=0;exitDy=0;endArrow=oval;endFill=1;" edge="1" parent="1" source="EYCL_kgDiC81q_rOXNcm-209" target="EYCL_kgDiC81q_rOXNcm-202">
          <mxGeometry relative="1" as="geometry" />
        </mxCell>
        <mxCell id="EYCL_kgDiC81q_rOXNcm-209" value="Time&lt;div&gt;(timeID)&lt;br&gt;&lt;/div&gt;" style="ellipse;whiteSpace=wrap;html=1;fontStyle=1" vertex="1" parent="1">
          <mxGeometry x="250" y="90" width="140" height="60" as="geometry" />
        </mxCell>
        <mxCell id="EYCL_kgDiC81q_rOXNcm-247" style="edgeStyle=none;rounded=0;orthogonalLoop=1;jettySize=auto;html=1;exitX=1;exitY=0.5;exitDx=0;exitDy=0;endArrow=oval;endFill=1;strokeColor=default;" edge="1" parent="1" source="EYCL_kgDiC81q_rOXNcm-210" target="EYCL_kgDiC81q_rOXNcm-209">
          <mxGeometry relative="1" as="geometry" />
        </mxCell>
        <mxCell id="EYCL_kgDiC81q_rOXNcm-210" value="&lt;div&gt;TimeAmPm&lt;/div&gt;&lt;div&gt;(timeAmPmCode)&lt;br&gt;&lt;/div&gt;" style="ellipse;whiteSpace=wrap;html=1;fontStyle=1" vertex="1" parent="1">
          <mxGeometry x="10" y="170" width="140" height="60" as="geometry" />
        </mxCell>
        <mxCell id="EYCL_kgDiC81q_rOXNcm-260" style="edgeStyle=none;rounded=0;orthogonalLoop=1;jettySize=auto;html=1;exitX=0.5;exitY=0;exitDx=0;exitDy=0;endArrow=oval;endFill=1;" edge="1" parent="1" source="EYCL_kgDiC81q_rOXNcm-211" target="EYCL_kgDiC81q_rOXNcm-202">
          <mxGeometry relative="1" as="geometry" />
        </mxCell>
        <mxCell id="EYCL_kgDiC81q_rOXNcm-211" value="&lt;div&gt;Occurrence&lt;/div&gt;&lt;div&gt;(occurrenceID)&lt;br&gt;&lt;/div&gt;" style="ellipse;whiteSpace=wrap;html=1;fontStyle=1" vertex="1" parent="1">
          <mxGeometry x="330" y="570" width="140" height="60" as="geometry" />
        </mxCell>
        <mxCell id="EYCL_kgDiC81q_rOXNcm-256" style="edgeStyle=none;rounded=0;orthogonalLoop=1;jettySize=auto;html=1;endArrow=none;endFill=0;strokeColor=default;entryX=0;entryY=0.5;entryDx=0;entryDy=0;" edge="1" parent="1" source="EYCL_kgDiC81q_rOXNcm-212" target="EYCL_kgDiC81q_rOXNcm-213">
          <mxGeometry relative="1" as="geometry">
            <mxPoint x="250" y="950" as="sourcePoint" />
          </mxGeometry>
        </mxCell>
        <mxCell id="EYCL_kgDiC81q_rOXNcm-212" value="&lt;div&gt;Witness&lt;/div&gt;&lt;div&gt;(personID)&lt;br&gt;&lt;/div&gt;" style="ellipse;whiteSpace=wrap;html=1;fontStyle=1" vertex="1" parent="1">
          <mxGeometry x="10" y="970" width="140" height="60" as="geometry" />
        </mxCell>
        <mxCell id="EYCL_kgDiC81q_rOXNcm-213" value="" style="rounded=1;whiteSpace=wrap;html=1;" vertex="1" parent="1">
          <mxGeometry x="210" y="970" width="60" height="60" as="geometry" />
        </mxCell>
        <mxCell id="EYCL_kgDiC81q_rOXNcm-255" style="edgeStyle=none;rounded=0;orthogonalLoop=1;jettySize=auto;html=1;endArrow=none;endFill=0;strokeColor=default;exitX=1;exitY=0.5;exitDx=0;exitDy=0;startArrow=none;startFill=0;" edge="1" parent="1" source="EYCL_kgDiC81q_rOXNcm-213" target="EYCL_kgDiC81q_rOXNcm-211">
          <mxGeometry relative="1" as="geometry" />
        </mxCell>
        <mxCell id="EYCL_kgDiC81q_rOXNcm-214" value="&quot;OccurrenceWitness&quot;" style="text;html=1;align=center;verticalAlign=middle;resizable=0;points=[];autosize=1;strokeColor=none;fillColor=none;fontStyle=1" vertex="1" parent="1">
          <mxGeometry x="165" y="940" width="150" height="30" as="geometry" />
        </mxCell>
        <mxCell id="EYCL_kgDiC81q_rOXNcm-245" style="edgeStyle=none;rounded=0;orthogonalLoop=1;jettySize=auto;html=1;endArrow=oval;endFill=1;strokeColor=default;" edge="1" parent="1" source="EYCL_kgDiC81q_rOXNcm-218" target="EYCL_kgDiC81q_rOXNcm-209">
          <mxGeometry relative="1" as="geometry" />
        </mxCell>
        <mxCell id="EYCL_kgDiC81q_rOXNcm-218" value="&lt;div&gt;timeHh&lt;/div&gt;" style="ellipse;whiteSpace=wrap;html=1;align=center;dashed=1;fontStyle=1" vertex="1" parent="1">
          <mxGeometry x="90" y="10" width="140" height="60" as="geometry" />
        </mxCell>
        <mxCell id="EYCL_kgDiC81q_rOXNcm-246" style="edgeStyle=none;rounded=0;orthogonalLoop=1;jettySize=auto;html=1;exitX=1;exitY=0.5;exitDx=0;exitDy=0;endArrow=oval;endFill=1;strokeColor=default;" edge="1" parent="1" source="EYCL_kgDiC81q_rOXNcm-219" target="EYCL_kgDiC81q_rOXNcm-209">
          <mxGeometry relative="1" as="geometry" />
        </mxCell>
        <mxCell id="EYCL_kgDiC81q_rOXNcm-219" value="timeMm" style="ellipse;whiteSpace=wrap;html=1;align=center;dashed=1;fontStyle=1" vertex="1" parent="1">
          <mxGeometry x="10" y="90" width="140" height="60" as="geometry" />
        </mxCell>
        <mxCell id="EYCL_kgDiC81q_rOXNcm-273" value="" style="edgeStyle=none;rounded=0;orthogonalLoop=1;jettySize=auto;html=1;exitX=1;exitY=1;exitDx=0;exitDy=0;endArrow=oval;endFill=1;" edge="1" parent="1" source="EYCL_kgDiC81q_rOXNcm-227" target="EYCL_kgDiC81q_rOXNcm-211">
          <mxGeometry relative="1" as="geometry" />
        </mxCell>
        <mxCell id="EYCL_kgDiC81q_rOXNcm-227" value="occurrenceLeadUpEvents" style="ellipse;whiteSpace=wrap;html=1;align=center;dashed=1;fontStyle=1" vertex="1" parent="1">
          <mxGeometry x="10" y="370" width="220" height="60" as="geometry" />
        </mxCell>
        <mxCell id="EYCL_kgDiC81q_rOXNcm-249" style="edgeStyle=none;rounded=0;orthogonalLoop=1;jettySize=auto;html=1;exitX=1;exitY=0.5;exitDx=0;exitDy=0;endArrow=oval;endFill=1;strokeColor=default;" edge="1" parent="1" source="EYCL_kgDiC81q_rOXNcm-228" target="EYCL_kgDiC81q_rOXNcm-211">
          <mxGeometry relative="1" as="geometry" />
        </mxCell>
        <mxCell id="EYCL_kgDiC81q_rOXNcm-228" value="occurrenceResultDescription" style="ellipse;whiteSpace=wrap;html=1;align=center;dashed=1;fontStyle=1" vertex="1" parent="1">
          <mxGeometry x="10" y="450" width="220" height="60" as="geometry" />
        </mxCell>
        <mxCell id="EYCL_kgDiC81q_rOXNcm-250" style="edgeStyle=none;rounded=0;orthogonalLoop=1;jettySize=auto;html=1;exitX=1;exitY=0.5;exitDx=0;exitDy=0;endArrow=oval;endFill=1;strokeColor=default;" edge="1" parent="1" source="EYCL_kgDiC81q_rOXNcm-230" target="EYCL_kgDiC81q_rOXNcm-211">
          <mxGeometry relative="1" as="geometry" />
        </mxCell>
        <mxCell id="EYCL_kgDiC81q_rOXNcm-230" value="occurrenceIntangibleReasons" style="ellipse;whiteSpace=wrap;html=1;align=center;dashed=1;fontStyle=1" vertex="1" parent="1">
          <mxGeometry x="10" y="530" width="220" height="60" as="geometry" />
        </mxCell>
        <mxCell id="EYCL_kgDiC81q_rOXNcm-251" style="edgeStyle=none;rounded=0;orthogonalLoop=1;jettySize=auto;html=1;exitX=1;exitY=0.5;exitDx=0;exitDy=0;endArrow=oval;endFill=1;strokeColor=default;" edge="1" parent="1" source="EYCL_kgDiC81q_rOXNcm-231" target="EYCL_kgDiC81q_rOXNcm-211">
          <mxGeometry relative="1" as="geometry" />
        </mxCell>
        <mxCell id="EYCL_kgDiC81q_rOXNcm-231" value="occurrenceDuringRegularJob" style="ellipse;whiteSpace=wrap;html=1;align=center;dashed=1;fontStyle=1" vertex="1" parent="1">
          <mxGeometry x="10" y="610" width="220" height="60" as="geometry" />
        </mxCell>
        <mxCell id="EYCL_kgDiC81q_rOXNcm-252" style="edgeStyle=none;rounded=0;orthogonalLoop=1;jettySize=auto;html=1;exitX=1;exitY=0.5;exitDx=0;exitDy=0;endArrow=oval;endFill=1;strokeColor=default;" edge="1" parent="1" source="EYCL_kgDiC81q_rOXNcm-232" target="EYCL_kgDiC81q_rOXNcm-211">
          <mxGeometry relative="1" as="geometry" />
        </mxCell>
        <mxCell id="EYCL_kgDiC81q_rOXNcm-232" value="&lt;div&gt;WorksiteLocation !&lt;br&gt;&lt;/div&gt;&lt;div&gt;(worksiteLocationName)&lt;br&gt;&lt;/div&gt;" style="ellipse;whiteSpace=wrap;html=1;align=center;dashed=1;fontStyle=1" vertex="1" parent="1">
          <mxGeometry x="10" y="690" width="220" height="60" as="geometry" />
        </mxCell>
        <mxCell id="EYCL_kgDiC81q_rOXNcm-253" style="edgeStyle=none;rounded=0;orthogonalLoop=1;jettySize=auto;html=1;exitX=1;exitY=0.5;exitDx=0;exitDy=0;endArrow=none;endFill=0;strokeColor=default;" edge="1" parent="1" source="EYCL_kgDiC81q_rOXNcm-233" target="EYCL_kgDiC81q_rOXNcm-211">
          <mxGeometry relative="1" as="geometry" />
        </mxCell>
        <mxCell id="EYCL_kgDiC81q_rOXNcm-233" value="&lt;div&gt;occurrenceAddrBusiness !&lt;br&gt;&lt;/div&gt;&lt;div&gt;(addrID)&lt;br&gt;&lt;/div&gt;" style="ellipse;whiteSpace=wrap;html=1;align=center;dashed=1;fontStyle=1" vertex="1" parent="1">
          <mxGeometry x="10" y="770" width="220" height="60" as="geometry" />
        </mxCell>
        <mxCell id="EYCL_kgDiC81q_rOXNcm-272" style="edgeStyle=none;rounded=0;orthogonalLoop=1;jettySize=auto;html=1;endArrow=oval;endFill=1;" edge="1" parent="1" source="EYCL_kgDiC81q_rOXNcm-261" target="EYCL_kgDiC81q_rOXNcm-202">
          <mxGeometry relative="1" as="geometry" />
        </mxCell>
        <mxCell id="EYCL_kgDiC81q_rOXNcm-261" value="iiNature" style="ellipse;whiteSpace=wrap;html=1;fontStyle=1;dashed=1;" vertex="1" parent="1">
          <mxGeometry x="290" y="170" width="140" height="60" as="geometry" />
        </mxCell>
        <mxCell id="EYCL_kgDiC81q_rOXNcm-271" style="edgeStyle=none;rounded=0;orthogonalLoop=1;jettySize=auto;html=1;exitX=1;exitY=0.5;exitDx=0;exitDy=0;endArrow=oval;endFill=1;" edge="1" parent="1" source="EYCL_kgDiC81q_rOXNcm-262" target="EYCL_kgDiC81q_rOXNcm-202">
          <mxGeometry relative="1" as="geometry" />
        </mxCell>
        <mxCell id="EYCL_kgDiC81q_rOXNcm-262" value="iiBodyPart" style="ellipse;whiteSpace=wrap;html=1;fontStyle=1;dashed=1;" vertex="1" parent="1">
          <mxGeometry x="140" y="220" width="140" height="60" as="geometry" />
        </mxCell>
        <mxCell id="EYCL_kgDiC81q_rOXNcm-270" style="edgeStyle=none;rounded=0;orthogonalLoop=1;jettySize=auto;html=1;exitX=1;exitY=0.5;exitDx=0;exitDy=0;endArrow=oval;endFill=1;" edge="1" parent="1" source="EYCL_kgDiC81q_rOXNcm-263" target="EYCL_kgDiC81q_rOXNcm-202">
          <mxGeometry relative="1" as="geometry" />
        </mxCell>
        <mxCell id="EYCL_kgDiC81q_rOXNcm-263" value="iiLostTimeStartDate&lt;br&gt;(dateID)" style="ellipse;whiteSpace=wrap;html=1;fontStyle=1" vertex="1" parent="1">
          <mxGeometry x="250" y="290" width="140" height="60" as="geometry" />
        </mxCell>
        <mxCell id="EYCL_kgDiC81q_rOXNcm-269" style="edgeStyle=none;rounded=0;orthogonalLoop=1;jettySize=auto;html=1;endArrow=oval;endFill=1;" edge="1" parent="1" source="EYCL_kgDiC81q_rOXNcm-264" target="EYCL_kgDiC81q_rOXNcm-202">
          <mxGeometry relative="1" as="geometry" />
        </mxCell>
        <mxCell id="EYCL_kgDiC81q_rOXNcm-264" value="&lt;div&gt;iiExpectedReturnDateID&lt;/div&gt;&lt;div&gt;(dateID)&lt;br&gt;&lt;/div&gt;" style="ellipse;whiteSpace=wrap;html=1;fontStyle=1" vertex="1" parent="1">
          <mxGeometry x="290" y="370" width="140" height="60" as="geometry" />
        </mxCell>
        <mxCell id="EYCL_kgDiC81q_rOXNcm-267" style="edgeStyle=none;rounded=0;orthogonalLoop=1;jettySize=auto;html=1;endArrow=oval;endFill=1;" edge="1" parent="1" source="EYCL_kgDiC81q_rOXNcm-265" target="EYCL_kgDiC81q_rOXNcm-202">
          <mxGeometry relative="1" as="geometry" />
        </mxCell>
        <mxCell id="EYCL_kgDiC81q_rOXNcm-265" value="iiWasLethal" style="ellipse;whiteSpace=wrap;html=1;fontStyle=1;dashed=1;" vertex="1" parent="1">
          <mxGeometry x="445" y="490" width="140" height="60" as="geometry" />
        </mxCell>
        <mxCell id="EYCL_kgDiC81q_rOXNcm-268" style="edgeStyle=none;rounded=0;orthogonalLoop=1;jettySize=auto;html=1;endArrow=oval;endFill=1;exitX=0.5;exitY=0;exitDx=0;exitDy=0;" edge="1" parent="1" source="EYCL_kgDiC81q_rOXNcm-266" target="EYCL_kgDiC81q_rOXNcm-202">
          <mxGeometry relative="1" as="geometry" />
        </mxCell>
        <mxCell id="EYCL_kgDiC81q_rOXNcm-266" value="Report" style="ellipse;whiteSpace=wrap;html=1;fontStyle=1" vertex="1" parent="1">
          <mxGeometry x="605" y="530" width="140" height="60" as="geometry" />
        </mxCell>
        <mxCell id="EYCL_kgDiC81q_rOXNcm-378" style="edgeStyle=none;rounded=0;orthogonalLoop=1;jettySize=auto;html=1;exitX=1;exitY=0;exitDx=0;exitDy=0;endArrow=oval;endFill=1;" edge="1" parent="1" source="EYCL_kgDiC81q_rOXNcm-274" target="EYCL_kgDiC81q_rOXNcm-266">
          <mxGeometry relative="1" as="geometry" />
        </mxCell>
        <mxCell id="EYCL_kgDiC81q_rOXNcm-274" value="&lt;div&gt;ReportSupervisor&lt;/div&gt;&lt;div&gt;(personID)&lt;br&gt;&lt;/div&gt;" style="ellipse;whiteSpace=wrap;html=1;fontStyle=1" vertex="1" parent="1">
          <mxGeometry x="410" y="690" width="140" height="60" as="geometry" />
        </mxCell>
        <mxCell id="EYCL_kgDiC81q_rOXNcm-277" style="edgeStyle=none;rounded=0;orthogonalLoop=1;jettySize=auto;html=1;exitX=1;exitY=0.5;exitDx=0;exitDy=0;endArrow=oval;endFill=1;" edge="1" parent="1" source="EYCL_kgDiC81q_rOXNcm-275" target="EYCL_kgDiC81q_rOXNcm-266">
          <mxGeometry relative="1" as="geometry" />
        </mxCell>
        <mxCell id="EYCL_kgDiC81q_rOXNcm-275" value="&lt;div&gt;ReportDate&lt;/div&gt;&lt;div&gt;(reportDateID)&lt;br&gt;&lt;/div&gt;" style="ellipse;whiteSpace=wrap;html=1;fontStyle=1" vertex="1" parent="1">
          <mxGeometry x="410" y="770" width="140" height="60" as="geometry" />
        </mxCell>
        <mxCell id="EYCL_kgDiC81q_rOXNcm-278" value="Form" style="ellipse;whiteSpace=wrap;html=1;fontStyle=1" vertex="1" parent="1">
          <mxGeometry x="645" y="810" width="140" height="60" as="geometry" />
        </mxCell>
        <mxCell id="EYCL_kgDiC81q_rOXNcm-283" style="edgeStyle=none;rounded=0;orthogonalLoop=1;jettySize=auto;html=1;exitX=0.5;exitY=0;exitDx=0;exitDy=0;endArrow=oval;endFill=1;" edge="1" parent="1" source="EYCL_kgDiC81q_rOXNcm-279" target="EYCL_kgDiC81q_rOXNcm-278">
          <mxGeometry relative="1" as="geometry" />
        </mxCell>
        <mxCell id="EYCL_kgDiC81q_rOXNcm-279" value="formTitle" style="ellipse;whiteSpace=wrap;html=1;fontStyle=1;dashed=1;" vertex="1" parent="1">
          <mxGeometry x="570" y="1010" width="140" height="60" as="geometry" />
        </mxCell>
        <mxCell id="EYCL_kgDiC81q_rOXNcm-284" style="edgeStyle=none;rounded=0;orthogonalLoop=1;jettySize=auto;html=1;exitX=0.5;exitY=0;exitDx=0;exitDy=0;endArrow=oval;endFill=1;" edge="1" parent="1" source="EYCL_kgDiC81q_rOXNcm-280" target="EYCL_kgDiC81q_rOXNcm-278">
          <mxGeometry relative="1" as="geometry" />
        </mxCell>
        <mxCell id="EYCL_kgDiC81q_rOXNcm-280" value="formBarCode" style="ellipse;whiteSpace=wrap;html=1;fontStyle=1;dashed=1;" vertex="1" parent="1">
          <mxGeometry x="690" y="925" width="140" height="60" as="geometry" />
        </mxCell>
        <mxCell id="EYCL_kgDiC81q_rOXNcm-288" style="edgeStyle=none;rounded=0;orthogonalLoop=1;jettySize=auto;html=1;exitX=1;exitY=0.5;exitDx=0;exitDy=0;endArrow=oval;endFill=1;strokeColor=default;" edge="1" parent="1" source="EYCL_kgDiC81q_rOXNcm-289" target="EYCL_kgDiC81q_rOXNcm-211">
          <mxGeometry relative="1" as="geometry">
            <mxPoint x="376" y="710" as="targetPoint" />
          </mxGeometry>
        </mxCell>
        <mxCell id="EYCL_kgDiC81q_rOXNcm-289" value="occurrenceTangibleCauses" style="ellipse;whiteSpace=wrap;html=1;align=center;dashed=1;fontStyle=1" vertex="1" parent="1">
          <mxGeometry x="10" y="852" width="220" height="60" as="geometry" />
        </mxCell>
        <mxCell id="EYCL_kgDiC81q_rOXNcm-293" style="edgeStyle=none;rounded=0;orthogonalLoop=1;jettySize=auto;html=1;exitX=1;exitY=0.5;exitDx=0;exitDy=0;endArrow=oval;endFill=1;" edge="1" parent="1" source="EYCL_kgDiC81q_rOXNcm-290" target="EYCL_kgDiC81q_rOXNcm-278">
          <mxGeometry relative="1" as="geometry" />
        </mxCell>
        <mxCell id="EYCL_kgDiC81q_rOXNcm-290" value="formType" style="ellipse;whiteSpace=wrap;html=1;fontStyle=1;dashed=1;" vertex="1" parent="1">
          <mxGeometry x="410" y="890" width="140" height="60" as="geometry" />
        </mxCell>
        <mxCell id="EYCL_kgDiC81q_rOXNcm-294" style="edgeStyle=none;rounded=0;orthogonalLoop=1;jettySize=auto;html=1;exitX=1;exitY=0.5;exitDx=0;exitDy=0;endArrow=oval;endFill=1;" edge="1" parent="1" source="EYCL_kgDiC81q_rOXNcm-291" target="EYCL_kgDiC81q_rOXNcm-278">
          <mxGeometry relative="1" as="geometry" />
        </mxCell>
        <mxCell id="EYCL_kgDiC81q_rOXNcm-291" value="formRevision" style="ellipse;whiteSpace=wrap;html=1;fontStyle=1;dashed=1;" vertex="1" parent="1">
          <mxGeometry x="410" y="970" width="140" height="60" as="geometry" />
        </mxCell>
        <mxCell id="EYCL_kgDiC81q_rOXNcm-295" value="Claim" style="ellipse;whiteSpace=wrap;html=1;fontStyle=1" vertex="1" parent="1">
          <mxGeometry x="850" y="610" width="140" height="60" as="geometry" />
        </mxCell>
        <mxCell id="EYCL_kgDiC81q_rOXNcm-302" style="edgeStyle=none;rounded=0;orthogonalLoop=1;jettySize=auto;html=1;endArrow=oval;endFill=1;" edge="1" parent="1" source="EYCL_kgDiC81q_rOXNcm-299" target="EYCL_kgDiC81q_rOXNcm-295">
          <mxGeometry relative="1" as="geometry" />
        </mxCell>
        <mxCell id="EYCL_kgDiC81q_rOXNcm-299" value="carrierClaimID" style="ellipse;whiteSpace=wrap;html=1;fontStyle=1" vertex="1" parent="1">
          <mxGeometry x="650" y="650" width="140" height="60" as="geometry" />
        </mxCell>
        <mxCell id="EYCL_kgDiC81q_rOXNcm-301" style="edgeStyle=none;rounded=0;orthogonalLoop=1;jettySize=auto;html=1;endArrow=oval;endFill=1;" edge="1" parent="1" source="EYCL_kgDiC81q_rOXNcm-300" target="EYCL_kgDiC81q_rOXNcm-295">
          <mxGeometry relative="1" as="geometry" />
        </mxCell>
        <mxCell id="EYCL_kgDiC81q_rOXNcm-300" value="&lt;div&gt;claimSignatureDate&lt;/div&gt;&lt;div&gt;(dateID)&lt;br&gt;&lt;/div&gt;" style="ellipse;whiteSpace=wrap;html=1;fontStyle=1" vertex="1" parent="1">
          <mxGeometry x="650" y="730" width="140" height="60" as="geometry" />
        </mxCell>
        <mxCell id="EYCL_kgDiC81q_rOXNcm-297" style="edgeStyle=none;rounded=0;orthogonalLoop=1;jettySize=auto;html=1;endArrow=oval;endFill=1;" edge="1" parent="1" source="EYCL_kgDiC81q_rOXNcm-202" target="EYCL_kgDiC81q_rOXNcm-295">
          <mxGeometry relative="1" as="geometry" />
        </mxCell>
        <mxCell id="EYCL_kgDiC81q_rOXNcm-298" style="edgeStyle=none;rounded=0;orthogonalLoop=1;jettySize=auto;html=1;exitX=1;exitY=0.5;exitDx=0;exitDy=0;endArrow=oval;endFill=1;" edge="1" parent="1" source="EYCL_kgDiC81q_rOXNcm-278" target="EYCL_kgDiC81q_rOXNcm-295">
          <mxGeometry relative="1" as="geometry" />
        </mxCell>
        <mxCell id="EYCL_kgDiC81q_rOXNcm-305" style="edgeStyle=none;rounded=0;orthogonalLoop=1;jettySize=auto;html=1;endArrow=oval;endFill=1;" edge="1" parent="1" source="EYCL_kgDiC81q_rOXNcm-303" target="EYCL_kgDiC81q_rOXNcm-295">
          <mxGeometry relative="1" as="geometry" />
        </mxCell>
        <mxCell id="EYCL_kgDiC81q_rOXNcm-303" value="&lt;div&gt;Employee&lt;/div&gt;&lt;div&gt;(personID)&lt;br&gt;&lt;/div&gt;" style="ellipse;whiteSpace=wrap;html=1;fontStyle=1" vertex="1" parent="1">
          <mxGeometry x="1010" y="530" width="140" height="60" as="geometry" />
        </mxCell>
        <mxCell id="EYCL_kgDiC81q_rOXNcm-306" style="edgeStyle=none;rounded=0;orthogonalLoop=1;jettySize=auto;html=1;endArrow=oval;endFill=1;" edge="1" parent="1" source="EYCL_kgDiC81q_rOXNcm-304" target="EYCL_kgDiC81q_rOXNcm-295">
          <mxGeometry relative="1" as="geometry" />
        </mxCell>
        <mxCell id="EYCL_kgDiC81q_rOXNcm-304" value="&lt;div&gt;ClaimCompleter&lt;/div&gt;&lt;div&gt;(personID)&lt;br&gt;&lt;/div&gt;" style="ellipse;whiteSpace=wrap;html=1;fontStyle=1" vertex="1" parent="1">
          <mxGeometry x="1050" y="852" width="140" height="60" as="geometry" />
        </mxCell>
        <mxCell id="EYCL_kgDiC81q_rOXNcm-308" style="edgeStyle=none;rounded=0;orthogonalLoop=1;jettySize=auto;html=1;endArrow=oval;endFill=1;" edge="1" parent="1" source="EYCL_kgDiC81q_rOXNcm-307" target="EYCL_kgDiC81q_rOXNcm-303">
          <mxGeometry relative="1" as="geometry" />
        </mxCell>
        <mxCell id="EYCL_kgDiC81q_rOXNcm-307" value="&lt;div&gt;EmployeePersonalInfo&lt;/div&gt;&lt;div&gt;(empPersonalInfoID)&lt;br&gt;&lt;/div&gt;" style="ellipse;whiteSpace=wrap;html=1;fontStyle=1" vertex="1" parent="1">
          <mxGeometry x="930" y="290" width="140" height="60" as="geometry" />
        </mxCell>
        <mxCell id="EYCL_kgDiC81q_rOXNcm-311" style="edgeStyle=none;rounded=0;orthogonalLoop=1;jettySize=auto;html=1;exitX=0;exitY=0.5;exitDx=0;exitDy=0;endArrow=oval;endFill=1;" edge="1" parent="1" source="EYCL_kgDiC81q_rOXNcm-309" target="EYCL_kgDiC81q_rOXNcm-303">
          <mxGeometry relative="1" as="geometry" />
        </mxCell>
        <mxCell id="EYCL_kgDiC81q_rOXNcm-309" value="&lt;div&gt;EmployeeProfessionalInfo&lt;/div&gt;&lt;div&gt;(empProfessionalInfoID)&lt;br&gt;&lt;/div&gt;" style="ellipse;whiteSpace=wrap;html=1;fontStyle=1" vertex="1" parent="1">
          <mxGeometry x="1250" y="490" width="180" height="60" as="geometry" />
        </mxCell>
        <mxCell id="EYCL_kgDiC81q_rOXNcm-314" style="edgeStyle=none;rounded=0;orthogonalLoop=1;jettySize=auto;html=1;exitX=1;exitY=0.5;exitDx=0;exitDy=0;endArrow=oval;endFill=1;" edge="1" parent="1" source="EYCL_kgDiC81q_rOXNcm-313" target="EYCL_kgDiC81q_rOXNcm-307">
          <mxGeometry relative="1" as="geometry" />
        </mxCell>
        <mxCell id="EYCL_kgDiC81q_rOXNcm-313" value="&lt;div&gt;empNameMiddleInitial&lt;/div&gt;" style="ellipse;whiteSpace=wrap;html=1;align=center;dashed=1;fontStyle=1" vertex="1" parent="1">
          <mxGeometry x="850" y="490" width="140" height="60" as="geometry" />
        </mxCell>
        <mxCell id="EYCL_kgDiC81q_rOXNcm-317" style="edgeStyle=none;rounded=0;orthogonalLoop=1;jettySize=auto;html=1;exitX=1;exitY=0.5;exitDx=0;exitDy=0;endArrow=oval;endFill=1;" edge="1" parent="1" source="EYCL_kgDiC81q_rOXNcm-316" target="EYCL_kgDiC81q_rOXNcm-307">
          <mxGeometry relative="1" as="geometry" />
        </mxCell>
        <mxCell id="EYCL_kgDiC81q_rOXNcm-316" value="&lt;div&gt;Sex !&lt;br&gt;&lt;/div&gt;&lt;div&gt;(sexType)&lt;br&gt;&lt;/div&gt;" style="ellipse;whiteSpace=wrap;html=1;fontStyle=1" vertex="1" parent="1">
          <mxGeometry x="770" y="410" width="140" height="60" as="geometry" />
        </mxCell>
        <mxCell id="EYCL_kgDiC81q_rOXNcm-319" style="edgeStyle=none;rounded=0;orthogonalLoop=1;jettySize=auto;html=1;exitX=1;exitY=0.5;exitDx=0;exitDy=0;endArrow=oval;endFill=1;" edge="1" parent="1" source="EYCL_kgDiC81q_rOXNcm-320" target="EYCL_kgDiC81q_rOXNcm-307">
          <mxGeometry relative="1" as="geometry">
            <mxPoint x="950" y="240" as="sourcePoint" />
          </mxGeometry>
        </mxCell>
        <mxCell id="EYCL_kgDiC81q_rOXNcm-320" value="empSSN" style="ellipse;whiteSpace=wrap;html=1;align=center;dashed=1;fontStyle=1" vertex="1" parent="1">
          <mxGeometry x="690" y="330" width="140" height="60" as="geometry" />
        </mxCell>
        <mxCell id="EYCL_kgDiC81q_rOXNcm-322" style="edgeStyle=none;rounded=0;orthogonalLoop=1;jettySize=auto;html=1;exitX=1;exitY=0.5;exitDx=0;exitDy=0;endArrow=oval;endFill=1;" edge="1" parent="1" source="EYCL_kgDiC81q_rOXNcm-321" target="EYCL_kgDiC81q_rOXNcm-307">
          <mxGeometry relative="1" as="geometry" />
        </mxCell>
        <mxCell id="EYCL_kgDiC81q_rOXNcm-321" value="empPhone" style="ellipse;whiteSpace=wrap;html=1;align=center;dashed=1;fontStyle=1" vertex="1" parent="1">
          <mxGeometry x="610" y="250" width="140" height="60" as="geometry" />
        </mxCell>
        <mxCell id="EYCL_kgDiC81q_rOXNcm-324" style="edgeStyle=none;rounded=0;orthogonalLoop=1;jettySize=auto;html=1;exitX=1;exitY=0.5;exitDx=0;exitDy=0;endArrow=oval;endFill=1;" edge="1" parent="1" source="EYCL_kgDiC81q_rOXNcm-323" target="EYCL_kgDiC81q_rOXNcm-307">
          <mxGeometry relative="1" as="geometry" />
        </mxCell>
        <mxCell id="EYCL_kgDiC81q_rOXNcm-323" value="&lt;div&gt;empBirthDate&lt;/div&gt;&lt;div&gt;(dateID)&lt;br&gt;&lt;/div&gt;" style="ellipse;whiteSpace=wrap;html=1;fontStyle=1" vertex="1" parent="1">
          <mxGeometry x="570" y="170" width="140" height="60" as="geometry" />
        </mxCell>
        <mxCell id="EYCL_kgDiC81q_rOXNcm-326" style="edgeStyle=none;rounded=0;orthogonalLoop=1;jettySize=auto;html=1;endArrow=oval;endFill=1;exitX=1;exitY=1;exitDx=0;exitDy=0;" edge="1" parent="1" source="EYCL_kgDiC81q_rOXNcm-325" target="EYCL_kgDiC81q_rOXNcm-307">
          <mxGeometry relative="1" as="geometry" />
        </mxCell>
        <mxCell id="EYCL_kgDiC81q_rOXNcm-325" value="&lt;div&gt;Language !&lt;/div&gt;&lt;div&gt;(languageName)&lt;br&gt;&lt;/div&gt;" style="ellipse;whiteSpace=wrap;html=1;fontStyle=1" vertex="1" parent="1">
          <mxGeometry x="570" y="90" width="140" height="60" as="geometry" />
        </mxCell>
        <mxCell id="EYCL_kgDiC81q_rOXNcm-328" style="edgeStyle=none;rounded=0;orthogonalLoop=1;jettySize=auto;html=1;entryX=0.5;entryY=0;entryDx=0;entryDy=0;endArrow=oval;endFill=1;exitX=0.5;exitY=1;exitDx=0;exitDy=0;" edge="1" parent="1" source="EYCL_kgDiC81q_rOXNcm-327" target="EYCL_kgDiC81q_rOXNcm-307">
          <mxGeometry relative="1" as="geometry" />
        </mxCell>
        <mxCell id="EYCL_kgDiC81q_rOXNcm-327" value="&lt;div&gt;RaceOrEthnicity !&lt;/div&gt;&lt;div&gt;(raceOrEthnicityName)&lt;br&gt;&lt;/div&gt;" style="ellipse;whiteSpace=wrap;html=1;fontStyle=1" vertex="1" parent="1">
          <mxGeometry x="890" y="90" width="140" height="60" as="geometry" />
        </mxCell>
        <mxCell id="EYCL_kgDiC81q_rOXNcm-330" style="edgeStyle=none;rounded=0;orthogonalLoop=1;jettySize=auto;html=1;endArrow=oval;endFill=1;" edge="1" parent="1" source="EYCL_kgDiC81q_rOXNcm-329" target="EYCL_kgDiC81q_rOXNcm-307">
          <mxGeometry relative="1" as="geometry" />
        </mxCell>
        <mxCell id="EYCL_kgDiC81q_rOXNcm-329" value="&lt;div&gt;empMailingAddrCounty !&lt;br&gt;&lt;/div&gt;&lt;div&gt;(addrID)&lt;br&gt;&lt;/div&gt;" style="ellipse;whiteSpace=wrap;html=1;fontStyle=1" vertex="1" parent="1">
          <mxGeometry x="570" y="10" width="180" height="60" as="geometry" />
        </mxCell>
        <mxCell id="EYCL_kgDiC81q_rOXNcm-333" style="edgeStyle=none;rounded=0;orthogonalLoop=1;jettySize=auto;html=1;endArrow=oval;endFill=1;" edge="1" parent="1" source="EYCL_kgDiC81q_rOXNcm-331" target="EYCL_kgDiC81q_rOXNcm-307">
          <mxGeometry relative="1" as="geometry" />
        </mxCell>
        <mxCell id="EYCL_kgDiC81q_rOXNcm-331" value="&lt;div&gt;MartialStatus !&lt;/div&gt;&lt;div&gt;(maritalStatusType)&lt;br&gt;&lt;/div&gt;" style="ellipse;whiteSpace=wrap;html=1;fontStyle=1" vertex="1" parent="1">
          <mxGeometry x="770" y="50" width="140" height="60" as="geometry" />
        </mxCell>
        <mxCell id="EYCL_kgDiC81q_rOXNcm-334" style="edgeStyle=none;rounded=0;orthogonalLoop=1;jettySize=auto;html=1;endArrow=oval;endFill=1;" edge="1" parent="1" source="EYCL_kgDiC81q_rOXNcm-332" target="EYCL_kgDiC81q_rOXNcm-307">
          <mxGeometry relative="1" as="geometry" />
        </mxCell>
        <mxCell id="EYCL_kgDiC81q_rOXNcm-332" value="empDependentChildrenNum" style="ellipse;whiteSpace=wrap;html=1;fontStyle=1;dashed=1;" vertex="1" parent="1">
          <mxGeometry x="970" y="10" width="180" height="60" as="geometry" />
        </mxCell>
        <mxCell id="EYCL_kgDiC81q_rOXNcm-336" style="edgeStyle=none;rounded=0;orthogonalLoop=1;jettySize=auto;html=1;endArrow=none;endFill=0;exitX=0.5;exitY=1;exitDx=0;exitDy=0;" edge="1" parent="1" source="EYCL_kgDiC81q_rOXNcm-335" target="EYCL_kgDiC81q_rOXNcm-307">
          <mxGeometry relative="1" as="geometry" />
        </mxCell>
        <mxCell id="EYCL_kgDiC81q_rOXNcm-335" value="&lt;div&gt;Spouse&lt;/div&gt;&lt;div&gt;(personID)&lt;br&gt;&lt;/div&gt;" style="ellipse;whiteSpace=wrap;html=1;fontStyle=1" vertex="1" parent="1">
          <mxGeometry x="1050" y="90" width="140" height="60" as="geometry" />
        </mxCell>
        <mxCell id="EYCL_kgDiC81q_rOXNcm-338" style="edgeStyle=none;rounded=0;orthogonalLoop=1;jettySize=auto;html=1;exitX=0;exitY=1;exitDx=0;exitDy=0;endArrow=none;endFill=0;" edge="1" parent="1" source="EYCL_kgDiC81q_rOXNcm-337" target="EYCL_kgDiC81q_rOXNcm-307">
          <mxGeometry relative="1" as="geometry" />
        </mxCell>
        <mxCell id="EYCL_kgDiC81q_rOXNcm-337" value="&lt;div&gt;Doctor&lt;/div&gt;&lt;div&gt;(personID)&lt;br&gt;&lt;/div&gt;" style="ellipse;whiteSpace=wrap;html=1;fontStyle=1" vertex="1" parent="1">
          <mxGeometry x="1130" y="170" width="140" height="60" as="geometry" />
        </mxCell>
        <mxCell id="EYCL_kgDiC81q_rOXNcm-340" style="edgeStyle=none;rounded=0;orthogonalLoop=1;jettySize=auto;html=1;endArrow=oval;endFill=1;" edge="1" parent="1" source="EYCL_kgDiC81q_rOXNcm-339" target="EYCL_kgDiC81q_rOXNcm-337">
          <mxGeometry relative="1" as="geometry" />
        </mxCell>
        <mxCell id="EYCL_kgDiC81q_rOXNcm-339" value="&lt;div&gt;docMailingAddr !&lt;/div&gt;&lt;div&gt;(addrID)&lt;br&gt;&lt;/div&gt;" style="ellipse;whiteSpace=wrap;html=1;fontStyle=1" vertex="1" parent="1">
          <mxGeometry x="1170" y="10" width="140" height="60" as="geometry" />
        </mxCell>
        <mxCell id="EYCL_kgDiC81q_rOXNcm-344" style="edgeStyle=none;rounded=0;orthogonalLoop=1;jettySize=auto;html=1;exitX=1;exitY=0.5;exitDx=0;exitDy=0;endArrow=oval;endFill=1;" edge="1" parent="1" source="EYCL_kgDiC81q_rOXNcm-341" target="EYCL_kgDiC81q_rOXNcm-304">
          <mxGeometry relative="1" as="geometry" />
        </mxCell>
        <mxCell id="EYCL_kgDiC81q_rOXNcm-341" value="compBusinessPhone" style="ellipse;whiteSpace=wrap;html=1;fontStyle=1;dashed=1;" vertex="1" parent="1">
          <mxGeometry x="850" y="770" width="140" height="60" as="geometry" />
        </mxCell>
        <mxCell id="EYCL_kgDiC81q_rOXNcm-345" style="edgeStyle=none;rounded=0;orthogonalLoop=1;jettySize=auto;html=1;exitX=1;exitY=0.5;exitDx=0;exitDy=0;endArrow=oval;endFill=1;" edge="1" parent="1" source="EYCL_kgDiC81q_rOXNcm-342" target="EYCL_kgDiC81q_rOXNcm-304">
          <mxGeometry relative="1" as="geometry" />
        </mxCell>
        <mxCell id="EYCL_kgDiC81q_rOXNcm-342" value="&lt;div&gt;compMailingAddrBusiness !&lt;/div&gt;&lt;div&gt;(addrID)&lt;br&gt;&lt;/div&gt;" style="ellipse;whiteSpace=wrap;html=1;fontStyle=1;" vertex="1" parent="1">
          <mxGeometry x="810" y="852" width="180" height="60" as="geometry" />
        </mxCell>
        <mxCell id="EYCL_kgDiC81q_rOXNcm-346" style="edgeStyle=none;rounded=0;orthogonalLoop=1;jettySize=auto;html=1;exitX=1;exitY=0.5;exitDx=0;exitDy=0;endArrow=none;endFill=0;" edge="1" parent="1" source="EYCL_kgDiC81q_rOXNcm-343" target="EYCL_kgDiC81q_rOXNcm-304">
          <mxGeometry relative="1" as="geometry" />
        </mxCell>
        <mxCell id="EYCL_kgDiC81q_rOXNcm-343" value="&lt;div&gt;compAddrBusiness !&lt;/div&gt;&lt;div&gt;(addrID)&lt;br&gt;&lt;/div&gt;" style="ellipse;whiteSpace=wrap;html=1;fontStyle=1;dashed=1;" vertex="1" parent="1">
          <mxGeometry x="850" y="930" width="140" height="60" as="geometry" />
        </mxCell>
        <mxCell id="EYCL_kgDiC81q_rOXNcm-348" style="edgeStyle=none;rounded=0;orthogonalLoop=1;jettySize=auto;html=1;endArrow=oval;endFill=1;" edge="1" parent="1" source="EYCL_kgDiC81q_rOXNcm-347" target="EYCL_kgDiC81q_rOXNcm-304">
          <mxGeometry relative="1" as="geometry" />
        </mxCell>
        <mxCell id="EYCL_kgDiC81q_rOXNcm-347" value="compFederalTaxID" style="ellipse;whiteSpace=wrap;html=1;fontStyle=1;dashed=1;" vertex="1" parent="1">
          <mxGeometry x="890" y="1010" width="140" height="60" as="geometry" />
        </mxCell>
        <mxCell id="EYCL_kgDiC81q_rOXNcm-350" style="edgeStyle=none;rounded=0;orthogonalLoop=1;jettySize=auto;html=1;exitX=0.5;exitY=0;exitDx=0;exitDy=0;endArrow=oval;endFill=1;" edge="1" parent="1" source="EYCL_kgDiC81q_rOXNcm-349" target="EYCL_kgDiC81q_rOXNcm-304">
          <mxGeometry relative="1" as="geometry" />
        </mxCell>
        <mxCell id="EYCL_kgDiC81q_rOXNcm-349" value="compPrimaryNAICSCode" style="ellipse;whiteSpace=wrap;html=1;fontStyle=1;dashed=1;" vertex="1" parent="1">
          <mxGeometry x="1030" y="970" width="180" height="60" as="geometry" />
        </mxCell>
        <mxCell id="EYCL_kgDiC81q_rOXNcm-352" style="edgeStyle=none;rounded=0;orthogonalLoop=1;jettySize=auto;html=1;endArrow=none;endFill=0;" edge="1" parent="1" source="EYCL_kgDiC81q_rOXNcm-351" target="EYCL_kgDiC81q_rOXNcm-304">
          <mxGeometry relative="1" as="geometry" />
        </mxCell>
        <mxCell id="EYCL_kgDiC81q_rOXNcm-351" value="compSpecific NAICSCode" style="ellipse;whiteSpace=wrap;html=1;fontStyle=1;dashed=1;" vertex="1" parent="1">
          <mxGeometry x="1210" y="1010" width="180" height="60" as="geometry" />
        </mxCell>
        <mxCell id="EYCL_kgDiC81q_rOXNcm-354" style="edgeStyle=none;rounded=0;orthogonalLoop=1;jettySize=auto;html=1;exitX=0.098;exitY=0.193;exitDx=0;exitDy=0;endArrow=oval;endFill=1;exitPerimeter=0;" edge="1" parent="1" source="EYCL_kgDiC81q_rOXNcm-353" target="EYCL_kgDiC81q_rOXNcm-304">
          <mxGeometry relative="1" as="geometry" />
        </mxCell>
        <mxCell id="EYCL_kgDiC81q_rOXNcm-353" value="complTexasComptrollerTaxPayerNo" style="ellipse;whiteSpace=wrap;html=1;fontStyle=1;dashed=1;" vertex="1" parent="1">
          <mxGeometry x="1410" y="1010" width="220" height="60" as="geometry" />
        </mxCell>
        <mxCell id="EYCL_kgDiC81q_rOXNcm-356" style="edgeStyle=none;rounded=0;orthogonalLoop=1;jettySize=auto;html=1;exitX=0;exitY=0.5;exitDx=0;exitDy=0;endArrow=oval;endFill=1;" edge="1" parent="1" source="EYCL_kgDiC81q_rOXNcm-355" target="EYCL_kgDiC81q_rOXNcm-304">
          <mxGeometry relative="1" as="geometry" />
        </mxCell>
        <mxCell id="EYCL_kgDiC81q_rOXNcm-355" value="complWCICompanyName" style="ellipse;whiteSpace=wrap;html=1;fontStyle=1;dashed=1;" vertex="1" parent="1">
          <mxGeometry x="1370" y="930" width="180" height="60" as="geometry" />
        </mxCell>
        <mxCell id="EYCL_kgDiC81q_rOXNcm-358" style="edgeStyle=none;rounded=0;orthogonalLoop=1;jettySize=auto;html=1;exitX=0;exitY=0.5;exitDx=0;exitDy=0;endArrow=oval;endFill=1;" edge="1" parent="1" source="EYCL_kgDiC81q_rOXNcm-357" target="EYCL_kgDiC81q_rOXNcm-304">
          <mxGeometry relative="1" as="geometry" />
        </mxCell>
        <mxCell id="EYCL_kgDiC81q_rOXNcm-357" value="compPolicyNo" style="ellipse;whiteSpace=wrap;html=1;fontStyle=1;dashed=1;" vertex="1" parent="1">
          <mxGeometry x="1290" y="852" width="140" height="60" as="geometry" />
        </mxCell>
        <mxCell id="EYCL_kgDiC81q_rOXNcm-363" style="edgeStyle=none;rounded=0;orthogonalLoop=1;jettySize=auto;html=1;exitX=0;exitY=0.5;exitDx=0;exitDy=0;entryX=1;entryY=0.5;entryDx=0;entryDy=0;endArrow=oval;endFill=1;" edge="1" parent="1" source="EYCL_kgDiC81q_rOXNcm-359" target="EYCL_kgDiC81q_rOXNcm-304">
          <mxGeometry relative="1" as="geometry" />
        </mxCell>
        <mxCell id="EYCL_kgDiC81q_rOXNcm-359" value="complRequestedAccidentPreventionServices" style="ellipse;whiteSpace=wrap;html=1;fontStyle=1;dashed=1;" vertex="1" parent="1">
          <mxGeometry x="1370" y="792" width="300" height="60" as="geometry" />
        </mxCell>
        <mxCell id="EYCL_kgDiC81q_rOXNcm-362" style="edgeStyle=none;rounded=0;orthogonalLoop=1;jettySize=auto;html=1;endArrow=oval;endFill=1;exitX=0;exitY=1;exitDx=0;exitDy=0;" edge="1" parent="1" source="EYCL_kgDiC81q_rOXNcm-360" target="EYCL_kgDiC81q_rOXNcm-304">
          <mxGeometry relative="1" as="geometry" />
        </mxCell>
        <mxCell id="EYCL_kgDiC81q_rOXNcm-360" value="complReceivedAccidentPreventionServices" style="ellipse;whiteSpace=wrap;html=1;fontStyle=1;dashed=1;" vertex="1" parent="1">
          <mxGeometry x="1370" y="710" width="300" height="60" as="geometry" />
        </mxCell>
        <mxCell id="EYCL_kgDiC81q_rOXNcm-370" style="edgeStyle=none;rounded=0;orthogonalLoop=1;jettySize=auto;html=1;endArrow=oval;endFill=1;" edge="1" parent="1" source="EYCL_kgDiC81q_rOXNcm-364" target="EYCL_kgDiC81q_rOXNcm-309">
          <mxGeometry relative="1" as="geometry" />
        </mxCell>
        <mxCell id="EYCL_kgDiC81q_rOXNcm-364" value="&lt;div&gt;empHireDate&lt;/div&gt;&lt;div&gt;(dateID)&lt;br&gt;&lt;/div&gt;" style="ellipse;whiteSpace=wrap;html=1;fontStyle=1" vertex="1" parent="1">
          <mxGeometry x="1530" y="550" width="140" height="60" as="geometry" />
        </mxCell>
        <mxCell id="EYCL_kgDiC81q_rOXNcm-371" style="edgeStyle=none;rounded=0;orthogonalLoop=1;jettySize=auto;html=1;exitX=0;exitY=1;exitDx=0;exitDy=0;endArrow=oval;endFill=1;" edge="1" parent="1" source="EYCL_kgDiC81q_rOXNcm-365" target="EYCL_kgDiC81q_rOXNcm-309">
          <mxGeometry relative="1" as="geometry" />
        </mxCell>
        <mxCell id="EYCL_kgDiC81q_rOXNcm-365" value="empTexasRecruitment" style="ellipse;whiteSpace=wrap;html=1;fontStyle=1" vertex="1" parent="1">
          <mxGeometry x="1490" y="630" width="140" height="60" as="geometry" />
        </mxCell>
        <mxCell id="EYCL_kgDiC81q_rOXNcm-372" style="edgeStyle=none;rounded=0;orthogonalLoop=1;jettySize=auto;html=1;exitX=0.5;exitY=0;exitDx=0;exitDy=0;endArrow=oval;endFill=1;" edge="1" parent="1" source="EYCL_kgDiC81q_rOXNcm-366" target="EYCL_kgDiC81q_rOXNcm-309">
          <mxGeometry relative="1" as="geometry" />
        </mxCell>
        <mxCell id="EYCL_kgDiC81q_rOXNcm-366" value="&lt;div&gt;empCurrPositionDurationMY&lt;/div&gt;&lt;div&gt;(durationID)&lt;br&gt;&lt;/div&gt;" style="ellipse;whiteSpace=wrap;html=1;fontStyle=1" vertex="1" parent="1">
          <mxGeometry x="1290" y="650" width="180" height="60" as="geometry" />
        </mxCell>
        <mxCell id="EYCL_kgDiC81q_rOXNcm-373" style="edgeStyle=none;rounded=0;orthogonalLoop=1;jettySize=auto;html=1;endArrow=oval;endFill=1;exitX=0.726;exitY=0.039;exitDx=0;exitDy=0;exitPerimeter=0;" edge="1" parent="1" source="EYCL_kgDiC81q_rOXNcm-367" target="EYCL_kgDiC81q_rOXNcm-309">
          <mxGeometry relative="1" as="geometry">
            <mxPoint x="1210" y="750" as="sourcePoint" />
          </mxGeometry>
        </mxCell>
        <mxCell id="EYCL_kgDiC81q_rOXNcm-367" value="&lt;div&gt;empCurrPositionDurationMY&lt;/div&gt;&lt;div&gt;(durationID)&lt;br&gt;&lt;/div&gt;" style="ellipse;whiteSpace=wrap;html=1;fontStyle=1" vertex="1" parent="1">
          <mxGeometry x="1085" y="770" width="180" height="60" as="geometry" />
        </mxCell>
        <mxCell id="EYCL_kgDiC81q_rOXNcm-374" style="edgeStyle=none;rounded=0;orthogonalLoop=1;jettySize=auto;html=1;endArrow=oval;endFill=1;exitX=1;exitY=0.5;exitDx=0;exitDy=0;" edge="1" parent="1" source="EYCL_kgDiC81q_rOXNcm-368">
          <mxGeometry relative="1" as="geometry">
            <mxPoint x="1300" y="550" as="targetPoint" />
          </mxGeometry>
        </mxCell>
        <mxCell id="EYCL_kgDiC81q_rOXNcm-368" value="empOccupationTitle" style="ellipse;whiteSpace=wrap;html=1;fontStyle=1;dashed=1;" vertex="1" parent="1">
          <mxGeometry x="1050" y="690" width="140" height="60" as="geometry" />
        </mxCell>
        <mxCell id="EYCL_kgDiC81q_rOXNcm-375" value="&lt;div&gt;&lt;br&gt;&lt;/div&gt;" style="edgeStyle=none;rounded=0;orthogonalLoop=1;jettySize=auto;html=1;endArrow=oval;endFill=1;entryX=0;entryY=1;entryDx=0;entryDy=0;" edge="1" parent="1" source="EYCL_kgDiC81q_rOXNcm-369" target="EYCL_kgDiC81q_rOXNcm-309">
          <mxGeometry relative="1" as="geometry" />
        </mxCell>
        <mxCell id="EYCL_kgDiC81q_rOXNcm-369" value="&lt;div&gt;empFullWorkWeekDurationHD&lt;/div&gt;&lt;div&gt;(durationID)&lt;br&gt;&lt;/div&gt;" style="ellipse;whiteSpace=wrap;html=1;fontStyle=1;dashed=1;" vertex="1" parent="1">
          <mxGeometry x="1010" y="610" width="220" height="60" as="geometry" />
        </mxCell>
        <mxCell id="EYCL_kgDiC81q_rOXNcm-376" style="edgeStyle=none;rounded=0;orthogonalLoop=1;jettySize=auto;html=1;exitX=0;exitY=0.5;exitDx=0;exitDy=0;" edge="1" parent="1" source="EYCL_kgDiC81q_rOXNcm-266" target="EYCL_kgDiC81q_rOXNcm-266">
          <mxGeometry relative="1" as="geometry" />
        </mxCell>
        <mxCell id="EYCL_kgDiC81q_rOXNcm-382" style="edgeStyle=none;rounded=0;orthogonalLoop=1;jettySize=auto;html=1;exitX=1;exitY=1;exitDx=0;exitDy=0;endArrow=oval;endFill=1;" edge="1" parent="1" source="EYCL_kgDiC81q_rOXNcm-380" target="EYCL_kgDiC81q_rOXNcm-183">
          <mxGeometry relative="1" as="geometry" />
        </mxCell>
        <mxCell id="EYCL_kgDiC81q_rOXNcm-380" value="fiscalYear" style="ellipse;whiteSpace=wrap;html=1;fontStyle=1;dashed=1;" vertex="1" parent="1">
          <mxGeometry x="1090" y="290" width="140" height="60" as="geometry" />
        </mxCell>
        <mxCell id="EYCL_kgDiC81q_rOXNcm-385" style="edgeStyle=none;rounded=0;orthogonalLoop=1;jettySize=auto;html=1;endArrow=oval;endFill=1;" edge="1" parent="1" source="EYCL_kgDiC81q_rOXNcm-383" target="EYCL_kgDiC81q_rOXNcm-183">
          <mxGeometry relative="1" as="geometry" />
        </mxCell>
        <mxCell id="EYCL_kgDiC81q_rOXNcm-383" value="payrollClassificationCode" style="ellipse;whiteSpace=wrap;html=1;fontStyle=1;dashed=1;" vertex="1" parent="1">
          <mxGeometry x="1240" y="290" width="180" height="60" as="geometry" />
        </mxCell>
        <mxCell id="EYCL_kgDiC81q_rOXNcm-389" style="edgeStyle=none;rounded=0;orthogonalLoop=1;jettySize=auto;html=1;exitX=0.5;exitY=1;exitDx=0;exitDy=0;entryX=0;entryY=0;entryDx=0;entryDy=0;endArrow=none;endFill=0;" edge="1" parent="1" source="EYCL_kgDiC81q_rOXNcm-386" target="EYCL_kgDiC81q_rOXNcm-309">
          <mxGeometry relative="1" as="geometry" />
        </mxCell>
        <mxCell id="EYCL_kgDiC81q_rOXNcm-390" style="edgeStyle=none;rounded=0;orthogonalLoop=1;jettySize=auto;html=1;exitX=1;exitY=0.5;exitDx=0;exitDy=0;entryX=0;entryY=0.5;entryDx=0;entryDy=0;endArrow=none;endFill=0;" edge="1" parent="1" source="EYCL_kgDiC81q_rOXNcm-386" target="EYCL_kgDiC81q_rOXNcm-183">
          <mxGeometry relative="1" as="geometry" />
        </mxCell>
        <mxCell id="EYCL_kgDiC81q_rOXNcm-386" value="" style="rounded=1;whiteSpace=wrap;html=1;" vertex="1" parent="1">
          <mxGeometry x="1110" y="420" width="60" height="60" as="geometry" />
        </mxCell>
        <mxCell id="EYCL_kgDiC81q_rOXNcm-387" value="&quot;EmployeeProfessionalInfoPayroll&quot;" style="text;html=1;align=center;verticalAlign=middle;resizable=0;points=[];autosize=1;strokeColor=none;fillColor=none;fontStyle=1" vertex="1" parent="1">
          <mxGeometry x="1030" y="390" width="220" height="30" as="geometry" />
        </mxCell>
        <mxCell id="EYCL_kgDiC81q_rOXNcm-394" style="edgeStyle=none;rounded=0;orthogonalLoop=1;jettySize=auto;html=1;endArrow=none;endFill=0;" edge="1" parent="1" source="EYCL_kgDiC81q_rOXNcm-391" target="EYCL_kgDiC81q_rOXNcm-185">
          <mxGeometry relative="1" as="geometry" />
        </mxCell>
        <mxCell id="EYCL_kgDiC81q_rOXNcm-391" value="payRateUSDHourly" style="ellipse;whiteSpace=wrap;html=1;fontStyle=1;dashed=1;" vertex="1" parent="1">
          <mxGeometry x="1450" y="210" width="140" height="60" as="geometry" />
        </mxCell>
        <mxCell id="EYCL_kgDiC81q_rOXNcm-395" style="edgeStyle=none;rounded=0;orthogonalLoop=1;jettySize=auto;html=1;endArrow=none;endFill=0;" edge="1" parent="1" source="EYCL_kgDiC81q_rOXNcm-393" target="EYCL_kgDiC81q_rOXNcm-185">
          <mxGeometry relative="1" as="geometry" />
        </mxCell>
        <mxCell id="EYCL_kgDiC81q_rOXNcm-393" value="payRateUSDWeekly" style="ellipse;whiteSpace=wrap;html=1;fontStyle=1;dashed=1;" vertex="1" parent="1">
          <mxGeometry x="1560" y="290" width="140" height="60" as="geometry" />
        </mxCell>
        <mxCell id="EYCL_kgDiC81q_rOXNcm-398" style="edgeStyle=none;rounded=0;orthogonalLoop=1;jettySize=auto;html=1;entryX=1;entryY=0.5;entryDx=0;entryDy=0;exitX=0;exitY=0.5;exitDx=0;exitDy=0;endArrow=none;endFill=0;" edge="1" parent="1" source="EYCL_kgDiC81q_rOXNcm-401" target="EYCL_kgDiC81q_rOXNcm-183">
          <mxGeometry relative="1" as="geometry">
            <mxPoint x="1485" y="300" as="sourcePoint" />
            <mxPoint x="1395" y="410" as="targetPoint" />
            <Array as="points" />
          </mxGeometry>
        </mxCell>
        <mxCell id="EYCL_kgDiC81q_rOXNcm-400" style="edgeStyle=none;rounded=0;orthogonalLoop=1;jettySize=auto;html=1;exitX=1;exitY=0.5;exitDx=0;exitDy=0;endArrow=none;endFill=0;" edge="1" parent="1" source="EYCL_kgDiC81q_rOXNcm-401" target="EYCL_kgDiC81q_rOXNcm-185">
          <mxGeometry relative="1" as="geometry">
            <mxPoint x="1545" y="530" as="targetPoint" />
          </mxGeometry>
        </mxCell>
        <mxCell id="EYCL_kgDiC81q_rOXNcm-401" value="" style="rounded=1;whiteSpace=wrap;html=1;" vertex="1" parent="1">
          <mxGeometry x="1410" y="380" width="60" height="60" as="geometry" />
        </mxCell>
        <mxCell id="EYCL_kgDiC81q_rOXNcm-677" style="edgeStyle=none;rounded=0;orthogonalLoop=1;jettySize=auto;html=1;entryX=0.64;entryY=1;entryDx=0;entryDy=0;entryPerimeter=0;" edge="1" parent="1" source="EYCL_kgDiC81q_rOXNcm-402" target="EYCL_kgDiC81q_rOXNcm-676">
          <mxGeometry relative="1" as="geometry" />
        </mxCell>
        <mxCell id="EYCL_kgDiC81q_rOXNcm-402" value="&quot;Paycheck&quot;" style="text;html=1;align=center;verticalAlign=middle;resizable=0;points=[];autosize=1;strokeColor=none;fillColor=none;fontStyle=1" vertex="1" parent="1">
          <mxGeometry x="1395" y="350" width="90" height="30" as="geometry" />
        </mxCell>
        <mxCell id="EYCL_kgDiC81q_rOXNcm-403" value="&lt;div&gt;State !&lt;/div&gt;&lt;div&gt;(stateCode)&lt;br&gt;&lt;/div&gt;" style="ellipse;whiteSpace=wrap;html=1;fontStyle=1" vertex="1" parent="1">
          <mxGeometry x="1730" y="170" width="140" height="60" as="geometry" />
        </mxCell>
        <mxCell id="EYCL_kgDiC81q_rOXNcm-404" value="&lt;div&gt;Address !&lt;br&gt;&lt;/div&gt;&lt;div&gt;(addrID)&lt;br&gt;&lt;/div&gt;" style="ellipse;whiteSpace=wrap;html=1;fontStyle=1" vertex="1" parent="1">
          <mxGeometry x="1930" y="130" width="140" height="60" as="geometry" />
        </mxCell>
        <mxCell id="EYCL_kgDiC81q_rOXNcm-420" style="edgeStyle=none;rounded=0;orthogonalLoop=1;jettySize=auto;html=1;exitX=0.5;exitY=0;exitDx=0;exitDy=0;entryX=0.5;entryY=1;entryDx=0;entryDy=0;" edge="1" parent="1" source="EYCL_kgDiC81q_rOXNcm-405" target="EYCL_kgDiC81q_rOXNcm-404">
          <mxGeometry relative="1" as="geometry" />
        </mxCell>
        <mxCell id="EYCL_kgDiC81q_rOXNcm-405" value="&lt;div&gt;AddressWithCounty !&lt;br&gt;&lt;/div&gt;&lt;div&gt;(addrID)&lt;br&gt;&lt;/div&gt;" style="ellipse;whiteSpace=wrap;html=1;fontStyle=1" vertex="1" parent="1">
          <mxGeometry x="1930" y="330" width="140" height="60" as="geometry" />
        </mxCell>
        <mxCell id="EYCL_kgDiC81q_rOXNcm-419" style="edgeStyle=none;rounded=0;orthogonalLoop=1;jettySize=auto;html=1;exitX=0.5;exitY=0;exitDx=0;exitDy=0;entryX=0.5;entryY=1;entryDx=0;entryDy=0;" edge="1" parent="1" source="EYCL_kgDiC81q_rOXNcm-406" target="EYCL_kgDiC81q_rOXNcm-405">
          <mxGeometry relative="1" as="geometry" />
        </mxCell>
        <mxCell id="EYCL_kgDiC81q_rOXNcm-406" value="&lt;div&gt;AddressWithBusiness !&lt;br&gt;&lt;/div&gt;(addrID)" style="ellipse;whiteSpace=wrap;html=1;fontStyle=1" vertex="1" parent="1">
          <mxGeometry x="1930" y="410" width="140" height="60" as="geometry" />
        </mxCell>
        <mxCell id="EYCL_kgDiC81q_rOXNcm-418" style="edgeStyle=none;rounded=0;orthogonalLoop=1;jettySize=auto;html=1;exitX=1;exitY=0.5;exitDx=0;exitDy=0;endArrow=oval;endFill=1;" edge="1" parent="1" source="EYCL_kgDiC81q_rOXNcm-407" target="EYCL_kgDiC81q_rOXNcm-404">
          <mxGeometry relative="1" as="geometry" />
        </mxCell>
        <mxCell id="EYCL_kgDiC81q_rOXNcm-407" value="addrStreetOrPOBox" style="ellipse;whiteSpace=wrap;html=1;fontStyle=1;dashed=1;" vertex="1" parent="1">
          <mxGeometry x="1730" y="10" width="140" height="60" as="geometry" />
        </mxCell>
        <mxCell id="EYCL_kgDiC81q_rOXNcm-417" style="edgeStyle=none;rounded=0;orthogonalLoop=1;jettySize=auto;html=1;exitX=1;exitY=0.5;exitDx=0;exitDy=0;endArrow=oval;endFill=1;" edge="1" parent="1" source="EYCL_kgDiC81q_rOXNcm-408" target="EYCL_kgDiC81q_rOXNcm-404">
          <mxGeometry relative="1" as="geometry" />
        </mxCell>
        <mxCell id="EYCL_kgDiC81q_rOXNcm-408" value="addrCity" style="ellipse;whiteSpace=wrap;html=1;fontStyle=1;dashed=1;" vertex="1" parent="1">
          <mxGeometry x="1730" y="90" width="140" height="60" as="geometry" />
        </mxCell>
        <mxCell id="EYCL_kgDiC81q_rOXNcm-415" style="edgeStyle=none;rounded=0;orthogonalLoop=1;jettySize=auto;html=1;exitX=1;exitY=0.5;exitDx=0;exitDy=0;endArrow=oval;endFill=1;" edge="1" parent="1" source="EYCL_kgDiC81q_rOXNcm-409" target="EYCL_kgDiC81q_rOXNcm-404">
          <mxGeometry relative="1" as="geometry" />
        </mxCell>
        <mxCell id="EYCL_kgDiC81q_rOXNcm-409" value="addrZip" style="ellipse;whiteSpace=wrap;html=1;fontStyle=1;dashed=1;" vertex="1" parent="1">
          <mxGeometry x="1730" y="250" width="140" height="60" as="geometry" />
        </mxCell>
        <mxCell id="EYCL_kgDiC81q_rOXNcm-414" style="edgeStyle=none;rounded=0;orthogonalLoop=1;jettySize=auto;html=1;exitX=1;exitY=0.5;exitDx=0;exitDy=0;entryX=0;entryY=0.5;entryDx=0;entryDy=0;endArrow=oval;endFill=1;" edge="1" parent="1">
          <mxGeometry relative="1" as="geometry">
            <mxPoint x="1870" y="365" as="sourcePoint" />
            <mxPoint x="1930" y="365" as="targetPoint" />
          </mxGeometry>
        </mxCell>
        <mxCell id="EYCL_kgDiC81q_rOXNcm-410" value="addrCounty" style="ellipse;whiteSpace=wrap;html=1;fontStyle=1;dashed=1;" vertex="1" parent="1">
          <mxGeometry x="1730" y="330" width="140" height="60" as="geometry" />
        </mxCell>
        <mxCell id="EYCL_kgDiC81q_rOXNcm-413" style="edgeStyle=none;rounded=0;orthogonalLoop=1;jettySize=auto;html=1;exitX=1;exitY=0.5;exitDx=0;exitDy=0;entryX=0;entryY=0.5;entryDx=0;entryDy=0;endArrow=oval;endFill=1;" edge="1" parent="1" source="EYCL_kgDiC81q_rOXNcm-411" target="EYCL_kgDiC81q_rOXNcm-406">
          <mxGeometry relative="1" as="geometry" />
        </mxCell>
        <mxCell id="EYCL_kgDiC81q_rOXNcm-411" value="addrBusinessName" style="ellipse;whiteSpace=wrap;html=1;fontStyle=1;dashed=1;" vertex="1" parent="1">
          <mxGeometry x="1730" y="410" width="140" height="60" as="geometry" />
        </mxCell>
        <mxCell id="EYCL_kgDiC81q_rOXNcm-430" style="edgeStyle=none;rounded=0;orthogonalLoop=1;jettySize=auto;html=1;exitX=1;exitY=0.5;exitDx=0;exitDy=0;endArrow=none;endFill=0;" edge="1" parent="1" source="EYCL_kgDiC81q_rOXNcm-421" target="EYCL_kgDiC81q_rOXNcm-189">
          <mxGeometry relative="1" as="geometry" />
        </mxCell>
        <mxCell id="EYCL_kgDiC81q_rOXNcm-421" value="durationMonths" style="ellipse;whiteSpace=wrap;html=1;fontStyle=1;dashed=1;" vertex="1" parent="1">
          <mxGeometry x="2090" y="10" width="140" height="60" as="geometry" />
        </mxCell>
        <mxCell id="EYCL_kgDiC81q_rOXNcm-429" style="edgeStyle=none;rounded=0;orthogonalLoop=1;jettySize=auto;html=1;exitX=1;exitY=0.5;exitDx=0;exitDy=0;endArrow=none;endFill=0;" edge="1" parent="1" source="EYCL_kgDiC81q_rOXNcm-422" target="EYCL_kgDiC81q_rOXNcm-189">
          <mxGeometry relative="1" as="geometry" />
        </mxCell>
        <mxCell id="EYCL_kgDiC81q_rOXNcm-422" value="durationYears" style="ellipse;whiteSpace=wrap;html=1;fontStyle=1;dashed=1;" vertex="1" parent="1">
          <mxGeometry x="2090" y="90" width="140" height="60" as="geometry" />
        </mxCell>
        <mxCell id="EYCL_kgDiC81q_rOXNcm-428" style="edgeStyle=none;rounded=0;orthogonalLoop=1;jettySize=auto;html=1;exitX=1;exitY=0.5;exitDx=0;exitDy=0;endArrow=none;endFill=0;" edge="1" parent="1" source="EYCL_kgDiC81q_rOXNcm-423" target="EYCL_kgDiC81q_rOXNcm-190">
          <mxGeometry relative="1" as="geometry" />
        </mxCell>
        <mxCell id="EYCL_kgDiC81q_rOXNcm-423" value="durationnHours" style="ellipse;whiteSpace=wrap;html=1;fontStyle=1;dashed=1;" vertex="1" parent="1">
          <mxGeometry x="2090" y="170" width="140" height="60" as="geometry" />
        </mxCell>
        <mxCell id="EYCL_kgDiC81q_rOXNcm-427" style="edgeStyle=none;rounded=0;orthogonalLoop=1;jettySize=auto;html=1;exitX=1;exitY=0.5;exitDx=0;exitDy=0;endArrow=none;endFill=0;" edge="1" parent="1" source="EYCL_kgDiC81q_rOXNcm-424" target="EYCL_kgDiC81q_rOXNcm-190">
          <mxGeometry relative="1" as="geometry" />
        </mxCell>
        <mxCell id="EYCL_kgDiC81q_rOXNcm-424" value="durationDays" style="ellipse;whiteSpace=wrap;html=1;fontStyle=1;dashed=1;" vertex="1" parent="1">
          <mxGeometry x="2090" y="250" width="140" height="60" as="geometry" />
        </mxCell>
        <mxCell id="EYCL_kgDiC81q_rOXNcm-416" style="edgeStyle=none;rounded=0;orthogonalLoop=1;jettySize=auto;html=1;exitX=1;exitY=0.5;exitDx=0;exitDy=0;endArrow=oval;endFill=1;" edge="1" parent="1" source="EYCL_kgDiC81q_rOXNcm-403" target="EYCL_kgDiC81q_rOXNcm-404">
          <mxGeometry relative="1" as="geometry" />
        </mxCell>
        <mxCell id="EYCL_kgDiC81q_rOXNcm-432" value="&lt;div&gt;Person&lt;/div&gt;&lt;div&gt;(personID)&lt;/div&gt;" style="ellipse;whiteSpace=wrap;html=1;fontStyle=1" vertex="1" parent="1">
          <mxGeometry x="2290" y="330" width="140" height="60" as="geometry" />
        </mxCell>
        <mxCell id="EYCL_kgDiC81q_rOXNcm-439" style="edgeStyle=none;rounded=0;orthogonalLoop=1;jettySize=auto;html=1;" edge="1" parent="1" source="EYCL_kgDiC81q_rOXNcm-433" target="EYCL_kgDiC81q_rOXNcm-432">
          <mxGeometry relative="1" as="geometry" />
        </mxCell>
        <mxCell id="EYCL_kgDiC81q_rOXNcm-433" value="&lt;div&gt;Doctor&lt;/div&gt;&lt;div&gt;(personID)&lt;br&gt;&lt;/div&gt;" style="ellipse;whiteSpace=wrap;html=1;fontStyle=1" vertex="1" parent="1">
          <mxGeometry x="2290" y="450" width="140" height="60" as="geometry" />
        </mxCell>
        <mxCell id="EYCL_kgDiC81q_rOXNcm-438" style="edgeStyle=none;rounded=0;orthogonalLoop=1;jettySize=auto;html=1;exitX=0.5;exitY=0;exitDx=0;exitDy=0;" edge="1" parent="1" source="EYCL_kgDiC81q_rOXNcm-434" target="EYCL_kgDiC81q_rOXNcm-432">
          <mxGeometry relative="1" as="geometry" />
        </mxCell>
        <mxCell id="EYCL_kgDiC81q_rOXNcm-434" value="&lt;div&gt;Employee&lt;/div&gt;&lt;div&gt;(employeeID)&lt;br&gt;&lt;/div&gt;" style="ellipse;whiteSpace=wrap;html=1;fontStyle=1" vertex="1" parent="1">
          <mxGeometry x="2170" y="510" width="140" height="60" as="geometry" />
        </mxCell>
        <mxCell id="EYCL_kgDiC81q_rOXNcm-440" style="edgeStyle=none;rounded=0;orthogonalLoop=1;jettySize=auto;html=1;exitX=0.5;exitY=0;exitDx=0;exitDy=0;" edge="1" parent="1" source="EYCL_kgDiC81q_rOXNcm-435" target="EYCL_kgDiC81q_rOXNcm-432">
          <mxGeometry relative="1" as="geometry" />
        </mxCell>
        <mxCell id="EYCL_kgDiC81q_rOXNcm-435" value="&lt;div&gt;ClaimCompleter&lt;/div&gt;&lt;div&gt;(personID)&lt;/div&gt;" style="ellipse;whiteSpace=wrap;html=1;fontStyle=1" vertex="1" parent="1">
          <mxGeometry x="2410" y="510" width="140" height="60" as="geometry" />
        </mxCell>
        <mxCell id="EYCL_kgDiC81q_rOXNcm-441" style="edgeStyle=none;rounded=0;orthogonalLoop=1;jettySize=auto;html=1;endArrow=oval;endFill=1;" edge="1" parent="1" source="EYCL_kgDiC81q_rOXNcm-436" target="EYCL_kgDiC81q_rOXNcm-432">
          <mxGeometry relative="1" as="geometry" />
        </mxCell>
        <mxCell id="EYCL_kgDiC81q_rOXNcm-436" value="personNameFirst" style="ellipse;whiteSpace=wrap;html=1;fontStyle=1;dashed=1;" vertex="1" parent="1">
          <mxGeometry x="2090" y="330" width="140" height="60" as="geometry" />
        </mxCell>
        <mxCell id="EYCL_kgDiC81q_rOXNcm-442" style="edgeStyle=none;rounded=0;orthogonalLoop=1;jettySize=auto;html=1;exitX=1;exitY=0.5;exitDx=0;exitDy=0;endArrow=oval;endFill=1;entryX=0;entryY=1;entryDx=0;entryDy=0;" edge="1" parent="1" source="EYCL_kgDiC81q_rOXNcm-437" target="EYCL_kgDiC81q_rOXNcm-432">
          <mxGeometry relative="1" as="geometry" />
        </mxCell>
        <mxCell id="EYCL_kgDiC81q_rOXNcm-437" value="personNameLast" style="ellipse;whiteSpace=wrap;html=1;fontStyle=1;dashed=1;" vertex="1" parent="1">
          <mxGeometry x="2090" y="415" width="140" height="60" as="geometry" />
        </mxCell>
        <mxCell id="EYCL_kgDiC81q_rOXNcm-468" value="" style="shape=table;startSize=0;container=1;collapsible=0;childLayout=tableLayout;fillColor=#FFFFFF;" vertex="1" parent="1">
          <mxGeometry x="1890" y="65" width="40" height="20" as="geometry" />
        </mxCell>
        <mxCell id="EYCL_kgDiC81q_rOXNcm-469" value="" style="shape=tableRow;horizontal=0;startSize=0;swimlaneHead=0;swimlaneBody=0;strokeColor=inherit;top=0;left=0;bottom=0;right=0;collapsible=0;dropTarget=0;fillColor=#FFFFFF;points=[[0,0.5],[1,0.5]];portConstraint=eastwest;" vertex="1" parent="EYCL_kgDiC81q_rOXNcm-468">
          <mxGeometry width="40" height="20" as="geometry" />
        </mxCell>
        <mxCell id="EYCL_kgDiC81q_rOXNcm-470" value="" style="shape=partialRectangle;html=1;whiteSpace=wrap;connectable=0;strokeColor=inherit;overflow=hidden;fillColor=#FFFFFF;top=0;left=0;bottom=0;right=0;pointerEvents=1;" vertex="1" parent="EYCL_kgDiC81q_rOXNcm-469">
          <mxGeometry width="20" height="20" as="geometry">
            <mxRectangle width="20" height="20" as="alternateBounds" />
          </mxGeometry>
        </mxCell>
        <mxCell id="EYCL_kgDiC81q_rOXNcm-471" value="" style="shape=partialRectangle;html=1;whiteSpace=wrap;connectable=0;strokeColor=inherit;overflow=hidden;fillColor=#FFFFFF;top=0;left=0;bottom=0;right=0;pointerEvents=1;" vertex="1" parent="EYCL_kgDiC81q_rOXNcm-469">
          <mxGeometry x="20" width="20" height="20" as="geometry">
            <mxRectangle width="20" height="20" as="alternateBounds" />
          </mxGeometry>
        </mxCell>
        <mxCell id="EYCL_kgDiC81q_rOXNcm-472" value="&lt;font style=&quot;font-size: 8px;&quot;&gt;has / is of&lt;/font&gt;" style="text;html=1;align=center;verticalAlign=middle;resizable=0;points=[];autosize=1;strokeColor=none;fillColor=none;fontStyle=1" vertex="1" parent="1">
          <mxGeometry x="1880" y="75" width="60" height="30" as="geometry" />
        </mxCell>
        <mxCell id="EYCL_kgDiC81q_rOXNcm-473" value="" style="endArrow=blockThin;startArrow=blockThin;html=1;rounded=0;jumpSize=6;strokeColor=#990099;startFill=1;endFill=1;" edge="1" parent="1">
          <mxGeometry width="50" height="50" relative="1" as="geometry">
            <mxPoint x="1910" y="55" as="sourcePoint" />
            <mxPoint x="1930" y="55" as="targetPoint" />
          </mxGeometry>
        </mxCell>
        <mxCell id="EYCL_kgDiC81q_rOXNcm-474" value="" style="shape=table;startSize=0;container=1;collapsible=0;childLayout=tableLayout;fillColor=#FFFFFF;" vertex="1" parent="1">
          <mxGeometry x="1880" y="120" width="40" height="20" as="geometry" />
        </mxCell>
        <mxCell id="EYCL_kgDiC81q_rOXNcm-475" value="" style="shape=tableRow;horizontal=0;startSize=0;swimlaneHead=0;swimlaneBody=0;strokeColor=inherit;top=0;left=0;bottom=0;right=0;collapsible=0;dropTarget=0;fillColor=#FFFFFF;points=[[0,0.5],[1,0.5]];portConstraint=eastwest;" vertex="1" parent="EYCL_kgDiC81q_rOXNcm-474">
          <mxGeometry width="40" height="20" as="geometry" />
        </mxCell>
        <mxCell id="EYCL_kgDiC81q_rOXNcm-476" value="" style="shape=partialRectangle;html=1;whiteSpace=wrap;connectable=0;strokeColor=inherit;overflow=hidden;fillColor=#FFFFFF;top=0;left=0;bottom=0;right=0;pointerEvents=1;" vertex="1" parent="EYCL_kgDiC81q_rOXNcm-475">
          <mxGeometry width="20" height="20" as="geometry">
            <mxRectangle width="20" height="20" as="alternateBounds" />
          </mxGeometry>
        </mxCell>
        <mxCell id="EYCL_kgDiC81q_rOXNcm-477" value="" style="shape=partialRectangle;html=1;whiteSpace=wrap;connectable=0;strokeColor=inherit;overflow=hidden;fillColor=#FFFFFF;top=0;left=0;bottom=0;right=0;pointerEvents=1;" vertex="1" parent="EYCL_kgDiC81q_rOXNcm-475">
          <mxGeometry x="20" width="20" height="20" as="geometry">
            <mxRectangle width="20" height="20" as="alternateBounds" />
          </mxGeometry>
        </mxCell>
        <mxCell id="EYCL_kgDiC81q_rOXNcm-478" value="&lt;font style=&quot;font-size: 8px;&quot;&gt;has / is of&lt;/font&gt;" style="text;html=1;align=center;verticalAlign=middle;resizable=0;points=[];autosize=1;strokeColor=none;fillColor=none;fontStyle=1" vertex="1" parent="1">
          <mxGeometry x="1870" y="130" width="60" height="30" as="geometry" />
        </mxCell>
        <mxCell id="EYCL_kgDiC81q_rOXNcm-479" value="" style="endArrow=blockThin;startArrow=blockThin;html=1;rounded=0;jumpSize=6;strokeColor=#990099;startFill=1;endFill=1;" edge="1" parent="1">
          <mxGeometry width="50" height="50" relative="1" as="geometry">
            <mxPoint x="1900" y="110" as="sourcePoint" />
            <mxPoint x="1920" y="110" as="targetPoint" />
          </mxGeometry>
        </mxCell>
        <mxCell id="EYCL_kgDiC81q_rOXNcm-480" value="" style="shape=table;startSize=0;container=1;collapsible=0;childLayout=tableLayout;fillColor=#FFFFFF;" vertex="1" parent="1">
          <mxGeometry x="1880" y="180" width="40" height="20" as="geometry" />
        </mxCell>
        <mxCell id="EYCL_kgDiC81q_rOXNcm-481" value="" style="shape=tableRow;horizontal=0;startSize=0;swimlaneHead=0;swimlaneBody=0;strokeColor=inherit;top=0;left=0;bottom=0;right=0;collapsible=0;dropTarget=0;fillColor=#FFFFFF;points=[[0,0.5],[1,0.5]];portConstraint=eastwest;" vertex="1" parent="EYCL_kgDiC81q_rOXNcm-480">
          <mxGeometry width="40" height="20" as="geometry" />
        </mxCell>
        <mxCell id="EYCL_kgDiC81q_rOXNcm-482" value="" style="shape=partialRectangle;html=1;whiteSpace=wrap;connectable=0;strokeColor=inherit;overflow=hidden;fillColor=#FFFFFF;top=0;left=0;bottom=0;right=0;pointerEvents=1;" vertex="1" parent="EYCL_kgDiC81q_rOXNcm-481">
          <mxGeometry width="20" height="20" as="geometry">
            <mxRectangle width="20" height="20" as="alternateBounds" />
          </mxGeometry>
        </mxCell>
        <mxCell id="EYCL_kgDiC81q_rOXNcm-483" value="" style="shape=partialRectangle;html=1;whiteSpace=wrap;connectable=0;strokeColor=inherit;overflow=hidden;fillColor=#FFFFFF;top=0;left=0;bottom=0;right=0;pointerEvents=1;" vertex="1" parent="EYCL_kgDiC81q_rOXNcm-481">
          <mxGeometry x="20" width="20" height="20" as="geometry">
            <mxRectangle width="20" height="20" as="alternateBounds" />
          </mxGeometry>
        </mxCell>
        <mxCell id="EYCL_kgDiC81q_rOXNcm-484" value="&lt;font style=&quot;font-size: 8px;&quot;&gt;has / is of&lt;/font&gt;" style="text;html=1;align=center;verticalAlign=middle;resizable=0;points=[];autosize=1;strokeColor=none;fillColor=none;fontStyle=1" vertex="1" parent="1">
          <mxGeometry x="1870" y="190" width="60" height="30" as="geometry" />
        </mxCell>
        <mxCell id="EYCL_kgDiC81q_rOXNcm-485" value="" style="endArrow=blockThin;startArrow=blockThin;html=1;rounded=0;jumpSize=6;strokeColor=#990099;startFill=1;endFill=1;" edge="1" parent="1">
          <mxGeometry width="50" height="50" relative="1" as="geometry">
            <mxPoint x="1900" y="170" as="sourcePoint" />
            <mxPoint x="1920" y="170" as="targetPoint" />
          </mxGeometry>
        </mxCell>
        <mxCell id="EYCL_kgDiC81q_rOXNcm-486" value="" style="shape=table;startSize=0;container=1;collapsible=0;childLayout=tableLayout;fillColor=#FFFFFF;" vertex="1" parent="1">
          <mxGeometry x="1890" y="230" width="40" height="20" as="geometry" />
        </mxCell>
        <mxCell id="EYCL_kgDiC81q_rOXNcm-487" value="" style="shape=tableRow;horizontal=0;startSize=0;swimlaneHead=0;swimlaneBody=0;strokeColor=inherit;top=0;left=0;bottom=0;right=0;collapsible=0;dropTarget=0;fillColor=#FFFFFF;points=[[0,0.5],[1,0.5]];portConstraint=eastwest;" vertex="1" parent="EYCL_kgDiC81q_rOXNcm-486">
          <mxGeometry width="40" height="20" as="geometry" />
        </mxCell>
        <mxCell id="EYCL_kgDiC81q_rOXNcm-488" value="" style="shape=partialRectangle;html=1;whiteSpace=wrap;connectable=0;strokeColor=inherit;overflow=hidden;fillColor=#FFFFFF;top=0;left=0;bottom=0;right=0;pointerEvents=1;" vertex="1" parent="EYCL_kgDiC81q_rOXNcm-487">
          <mxGeometry width="20" height="20" as="geometry">
            <mxRectangle width="20" height="20" as="alternateBounds" />
          </mxGeometry>
        </mxCell>
        <mxCell id="EYCL_kgDiC81q_rOXNcm-489" value="" style="shape=partialRectangle;html=1;whiteSpace=wrap;connectable=0;strokeColor=inherit;overflow=hidden;fillColor=#FFFFFF;top=0;left=0;bottom=0;right=0;pointerEvents=1;" vertex="1" parent="EYCL_kgDiC81q_rOXNcm-487">
          <mxGeometry x="20" width="20" height="20" as="geometry">
            <mxRectangle width="20" height="20" as="alternateBounds" />
          </mxGeometry>
        </mxCell>
        <mxCell id="EYCL_kgDiC81q_rOXNcm-490" value="&lt;font style=&quot;font-size: 8px;&quot;&gt;has / is of&lt;/font&gt;" style="text;html=1;align=center;verticalAlign=middle;resizable=0;points=[];autosize=1;strokeColor=none;fillColor=none;fontStyle=1" vertex="1" parent="1">
          <mxGeometry x="1880" y="240" width="60" height="30" as="geometry" />
        </mxCell>
        <mxCell id="EYCL_kgDiC81q_rOXNcm-491" value="" style="endArrow=blockThin;startArrow=blockThin;html=1;rounded=0;jumpSize=6;strokeColor=#990099;startFill=1;endFill=1;" edge="1" parent="1">
          <mxGeometry width="50" height="50" relative="1" as="geometry">
            <mxPoint x="1910" y="220" as="sourcePoint" />
            <mxPoint x="1930" y="220" as="targetPoint" />
          </mxGeometry>
        </mxCell>
        <mxCell id="EYCL_kgDiC81q_rOXNcm-492" value="" style="shape=table;startSize=0;container=1;collapsible=0;childLayout=tableLayout;fillColor=#FFFFFF;" vertex="1" parent="1">
          <mxGeometry x="1880" y="350" width="40" height="20" as="geometry" />
        </mxCell>
        <mxCell id="EYCL_kgDiC81q_rOXNcm-493" value="" style="shape=tableRow;horizontal=0;startSize=0;swimlaneHead=0;swimlaneBody=0;strokeColor=inherit;top=0;left=0;bottom=0;right=0;collapsible=0;dropTarget=0;fillColor=#FFFFFF;points=[[0,0.5],[1,0.5]];portConstraint=eastwest;" vertex="1" parent="EYCL_kgDiC81q_rOXNcm-492">
          <mxGeometry width="40" height="20" as="geometry" />
        </mxCell>
        <mxCell id="EYCL_kgDiC81q_rOXNcm-494" value="" style="shape=partialRectangle;html=1;whiteSpace=wrap;connectable=0;strokeColor=inherit;overflow=hidden;fillColor=#FFFFFF;top=0;left=0;bottom=0;right=0;pointerEvents=1;" vertex="1" parent="EYCL_kgDiC81q_rOXNcm-493">
          <mxGeometry width="20" height="20" as="geometry">
            <mxRectangle width="20" height="20" as="alternateBounds" />
          </mxGeometry>
        </mxCell>
        <mxCell id="EYCL_kgDiC81q_rOXNcm-495" value="" style="shape=partialRectangle;html=1;whiteSpace=wrap;connectable=0;strokeColor=inherit;overflow=hidden;fillColor=#FFFFFF;top=0;left=0;bottom=0;right=0;pointerEvents=1;" vertex="1" parent="EYCL_kgDiC81q_rOXNcm-493">
          <mxGeometry x="20" width="20" height="20" as="geometry">
            <mxRectangle width="20" height="20" as="alternateBounds" />
          </mxGeometry>
        </mxCell>
        <mxCell id="EYCL_kgDiC81q_rOXNcm-496" value="&lt;font style=&quot;font-size: 8px;&quot;&gt;has / is of&lt;/font&gt;" style="text;html=1;align=center;verticalAlign=middle;resizable=0;points=[];autosize=1;strokeColor=none;fillColor=none;fontStyle=1" vertex="1" parent="1">
          <mxGeometry x="1870" y="360" width="60" height="30" as="geometry" />
        </mxCell>
        <mxCell id="EYCL_kgDiC81q_rOXNcm-497" value="" style="endArrow=blockThin;startArrow=blockThin;html=1;rounded=0;jumpSize=6;strokeColor=#990099;startFill=1;endFill=1;" edge="1" parent="1">
          <mxGeometry width="50" height="50" relative="1" as="geometry">
            <mxPoint x="1900" y="340" as="sourcePoint" />
            <mxPoint x="1920" y="340" as="targetPoint" />
          </mxGeometry>
        </mxCell>
        <mxCell id="EYCL_kgDiC81q_rOXNcm-510" value="" style="shape=table;startSize=0;container=1;collapsible=0;childLayout=tableLayout;fillColor=#FFFFFF;" vertex="1" parent="1">
          <mxGeometry x="1880" y="430" width="40" height="20" as="geometry" />
        </mxCell>
        <mxCell id="EYCL_kgDiC81q_rOXNcm-511" value="" style="shape=tableRow;horizontal=0;startSize=0;swimlaneHead=0;swimlaneBody=0;strokeColor=inherit;top=0;left=0;bottom=0;right=0;collapsible=0;dropTarget=0;fillColor=#FFFFFF;points=[[0,0.5],[1,0.5]];portConstraint=eastwest;" vertex="1" parent="EYCL_kgDiC81q_rOXNcm-510">
          <mxGeometry width="40" height="20" as="geometry" />
        </mxCell>
        <mxCell id="EYCL_kgDiC81q_rOXNcm-512" value="" style="shape=partialRectangle;html=1;whiteSpace=wrap;connectable=0;strokeColor=inherit;overflow=hidden;fillColor=#FFFFFF;top=0;left=0;bottom=0;right=0;pointerEvents=1;" vertex="1" parent="EYCL_kgDiC81q_rOXNcm-511">
          <mxGeometry width="20" height="20" as="geometry">
            <mxRectangle width="20" height="20" as="alternateBounds" />
          </mxGeometry>
        </mxCell>
        <mxCell id="EYCL_kgDiC81q_rOXNcm-513" value="" style="shape=partialRectangle;html=1;whiteSpace=wrap;connectable=0;strokeColor=inherit;overflow=hidden;fillColor=#FFFFFF;top=0;left=0;bottom=0;right=0;pointerEvents=1;" vertex="1" parent="EYCL_kgDiC81q_rOXNcm-511">
          <mxGeometry x="20" width="20" height="20" as="geometry">
            <mxRectangle width="20" height="20" as="alternateBounds" />
          </mxGeometry>
        </mxCell>
        <mxCell id="EYCL_kgDiC81q_rOXNcm-514" value="&lt;font style=&quot;font-size: 8px;&quot;&gt;has / is of&lt;/font&gt;" style="text;html=1;align=center;verticalAlign=middle;resizable=0;points=[];autosize=1;strokeColor=none;fillColor=none;fontStyle=1" vertex="1" parent="1">
          <mxGeometry x="1870" y="440" width="60" height="30" as="geometry" />
        </mxCell>
        <mxCell id="EYCL_kgDiC81q_rOXNcm-515" value="" style="endArrow=blockThin;startArrow=blockThin;html=1;rounded=0;jumpSize=6;strokeColor=#990099;startFill=1;endFill=1;" edge="1" parent="1">
          <mxGeometry width="50" height="50" relative="1" as="geometry">
            <mxPoint x="1900" y="420" as="sourcePoint" />
            <mxPoint x="1920" y="420" as="targetPoint" />
          </mxGeometry>
        </mxCell>
        <mxCell id="EYCL_kgDiC81q_rOXNcm-527" value="" style="shape=table;startSize=0;container=1;collapsible=0;childLayout=tableLayout;fillColor=#FFFFFF;" vertex="1" parent="1">
          <mxGeometry x="1897.5" y="650" width="40" height="20" as="geometry" />
        </mxCell>
        <mxCell id="EYCL_kgDiC81q_rOXNcm-528" value="" style="shape=tableRow;horizontal=0;startSize=0;swimlaneHead=0;swimlaneBody=0;strokeColor=inherit;top=0;left=0;bottom=0;right=0;collapsible=0;dropTarget=0;fillColor=#FFFFFF;points=[[0,0.5],[1,0.5]];portConstraint=eastwest;" vertex="1" parent="EYCL_kgDiC81q_rOXNcm-527">
          <mxGeometry width="40" height="20" as="geometry" />
        </mxCell>
        <mxCell id="EYCL_kgDiC81q_rOXNcm-529" value="" style="shape=partialRectangle;html=1;whiteSpace=wrap;connectable=0;strokeColor=inherit;overflow=hidden;fillColor=#FFFFFF;top=0;left=0;bottom=0;right=0;pointerEvents=1;" vertex="1" parent="EYCL_kgDiC81q_rOXNcm-528">
          <mxGeometry width="20" height="20" as="geometry">
            <mxRectangle width="20" height="20" as="alternateBounds" />
          </mxGeometry>
        </mxCell>
        <mxCell id="EYCL_kgDiC81q_rOXNcm-530" value="" style="shape=partialRectangle;html=1;whiteSpace=wrap;connectable=0;strokeColor=inherit;overflow=hidden;fillColor=#FFFFFF;top=0;left=0;bottom=0;right=0;pointerEvents=1;" vertex="1" parent="EYCL_kgDiC81q_rOXNcm-528">
          <mxGeometry x="20" width="20" height="20" as="geometry">
            <mxRectangle width="20" height="20" as="alternateBounds" />
          </mxGeometry>
        </mxCell>
        <mxCell id="EYCL_kgDiC81q_rOXNcm-531" value="&lt;font style=&quot;font-size: 8px;&quot;&gt;has / is of&lt;/font&gt;" style="text;html=1;align=center;verticalAlign=middle;resizable=0;points=[];autosize=1;strokeColor=none;fillColor=none;fontStyle=1" vertex="1" parent="1">
          <mxGeometry x="1887.5" y="660" width="60" height="30" as="geometry" />
        </mxCell>
        <mxCell id="EYCL_kgDiC81q_rOXNcm-532" value="" style="endArrow=blockThin;startArrow=blockThin;html=1;rounded=0;jumpSize=6;strokeColor=#990099;startFill=1;endFill=1;" edge="1" parent="1">
          <mxGeometry width="50" height="50" relative="1" as="geometry">
            <mxPoint x="1917.5" y="640" as="sourcePoint" />
            <mxPoint x="1937.5" y="640" as="targetPoint" />
          </mxGeometry>
        </mxCell>
        <mxCell id="EYCL_kgDiC81q_rOXNcm-533" value="" style="shape=table;startSize=0;container=1;collapsible=0;childLayout=tableLayout;fillColor=#FFFFFF;" vertex="1" parent="1">
          <mxGeometry x="2240" y="30" width="40" height="20" as="geometry" />
        </mxCell>
        <mxCell id="EYCL_kgDiC81q_rOXNcm-534" value="" style="shape=tableRow;horizontal=0;startSize=0;swimlaneHead=0;swimlaneBody=0;strokeColor=inherit;top=0;left=0;bottom=0;right=0;collapsible=0;dropTarget=0;fillColor=#FFFFFF;points=[[0,0.5],[1,0.5]];portConstraint=eastwest;" vertex="1" parent="EYCL_kgDiC81q_rOXNcm-533">
          <mxGeometry width="40" height="20" as="geometry" />
        </mxCell>
        <mxCell id="EYCL_kgDiC81q_rOXNcm-535" value="" style="shape=partialRectangle;html=1;whiteSpace=wrap;connectable=0;strokeColor=inherit;overflow=hidden;fillColor=#FFFFFF;top=0;left=0;bottom=0;right=0;pointerEvents=1;" vertex="1" parent="EYCL_kgDiC81q_rOXNcm-534">
          <mxGeometry width="20" height="20" as="geometry">
            <mxRectangle width="20" height="20" as="alternateBounds" />
          </mxGeometry>
        </mxCell>
        <mxCell id="EYCL_kgDiC81q_rOXNcm-536" value="" style="shape=partialRectangle;html=1;whiteSpace=wrap;connectable=0;strokeColor=inherit;overflow=hidden;fillColor=#FFFFFF;top=0;left=0;bottom=0;right=0;pointerEvents=1;" vertex="1" parent="EYCL_kgDiC81q_rOXNcm-534">
          <mxGeometry x="20" width="20" height="20" as="geometry">
            <mxRectangle width="20" height="20" as="alternateBounds" />
          </mxGeometry>
        </mxCell>
        <mxCell id="EYCL_kgDiC81q_rOXNcm-537" value="&lt;font style=&quot;font-size: 8px;&quot;&gt;has / is of&lt;/font&gt;" style="text;html=1;align=center;verticalAlign=middle;resizable=0;points=[];autosize=1;strokeColor=none;fillColor=none;fontStyle=1" vertex="1" parent="1">
          <mxGeometry x="2230" y="40" width="60" height="30" as="geometry" />
        </mxCell>
        <mxCell id="EYCL_kgDiC81q_rOXNcm-538" value="" style="endArrow=blockThin;startArrow=blockThin;html=1;rounded=0;jumpSize=6;strokeColor=#990099;startFill=1;endFill=1;" edge="1" parent="1">
          <mxGeometry width="50" height="50" relative="1" as="geometry">
            <mxPoint x="2260" y="20" as="sourcePoint" />
            <mxPoint x="2280" y="20" as="targetPoint" />
          </mxGeometry>
        </mxCell>
        <mxCell id="EYCL_kgDiC81q_rOXNcm-539" value="" style="shape=table;startSize=0;container=1;collapsible=0;childLayout=tableLayout;fillColor=#FFFFFF;" vertex="1" parent="1">
          <mxGeometry x="2260" y="85" width="40" height="20" as="geometry" />
        </mxCell>
        <mxCell id="EYCL_kgDiC81q_rOXNcm-540" value="" style="shape=tableRow;horizontal=0;startSize=0;swimlaneHead=0;swimlaneBody=0;strokeColor=inherit;top=0;left=0;bottom=0;right=0;collapsible=0;dropTarget=0;fillColor=#FFFFFF;points=[[0,0.5],[1,0.5]];portConstraint=eastwest;" vertex="1" parent="EYCL_kgDiC81q_rOXNcm-539">
          <mxGeometry width="40" height="20" as="geometry" />
        </mxCell>
        <mxCell id="EYCL_kgDiC81q_rOXNcm-541" value="" style="shape=partialRectangle;html=1;whiteSpace=wrap;connectable=0;strokeColor=inherit;overflow=hidden;fillColor=#FFFFFF;top=0;left=0;bottom=0;right=0;pointerEvents=1;" vertex="1" parent="EYCL_kgDiC81q_rOXNcm-540">
          <mxGeometry width="20" height="20" as="geometry">
            <mxRectangle width="20" height="20" as="alternateBounds" />
          </mxGeometry>
        </mxCell>
        <mxCell id="EYCL_kgDiC81q_rOXNcm-542" value="" style="shape=partialRectangle;html=1;whiteSpace=wrap;connectable=0;strokeColor=inherit;overflow=hidden;fillColor=#FFFFFF;top=0;left=0;bottom=0;right=0;pointerEvents=1;" vertex="1" parent="EYCL_kgDiC81q_rOXNcm-540">
          <mxGeometry x="20" width="20" height="20" as="geometry">
            <mxRectangle width="20" height="20" as="alternateBounds" />
          </mxGeometry>
        </mxCell>
        <mxCell id="EYCL_kgDiC81q_rOXNcm-543" value="&lt;font style=&quot;font-size: 8px;&quot;&gt;has / is of&lt;/font&gt;" style="text;html=1;align=center;verticalAlign=middle;resizable=0;points=[];autosize=1;strokeColor=none;fillColor=none;fontStyle=1" vertex="1" parent="1">
          <mxGeometry x="2250" y="95" width="60" height="30" as="geometry" />
        </mxCell>
        <mxCell id="EYCL_kgDiC81q_rOXNcm-544" value="" style="endArrow=blockThin;startArrow=blockThin;html=1;rounded=0;jumpSize=6;strokeColor=#990099;startFill=1;endFill=1;" edge="1" parent="1">
          <mxGeometry width="50" height="50" relative="1" as="geometry">
            <mxPoint x="2280" y="75" as="sourcePoint" />
            <mxPoint x="2300" y="75" as="targetPoint" />
          </mxGeometry>
        </mxCell>
        <mxCell id="EYCL_kgDiC81q_rOXNcm-551" value="" style="shape=table;startSize=0;container=1;collapsible=0;childLayout=tableLayout;fillColor=#FFFFFF;" vertex="1" parent="1">
          <mxGeometry x="2260" y="210" width="40" height="20" as="geometry" />
        </mxCell>
        <mxCell id="EYCL_kgDiC81q_rOXNcm-552" value="" style="shape=tableRow;horizontal=0;startSize=0;swimlaneHead=0;swimlaneBody=0;strokeColor=inherit;top=0;left=0;bottom=0;right=0;collapsible=0;dropTarget=0;fillColor=#FFFFFF;points=[[0,0.5],[1,0.5]];portConstraint=eastwest;" vertex="1" parent="EYCL_kgDiC81q_rOXNcm-551">
          <mxGeometry width="40" height="20" as="geometry" />
        </mxCell>
        <mxCell id="EYCL_kgDiC81q_rOXNcm-553" value="" style="shape=partialRectangle;html=1;whiteSpace=wrap;connectable=0;strokeColor=inherit;overflow=hidden;fillColor=#FFFFFF;top=0;left=0;bottom=0;right=0;pointerEvents=1;" vertex="1" parent="EYCL_kgDiC81q_rOXNcm-552">
          <mxGeometry width="20" height="20" as="geometry">
            <mxRectangle width="20" height="20" as="alternateBounds" />
          </mxGeometry>
        </mxCell>
        <mxCell id="EYCL_kgDiC81q_rOXNcm-554" value="" style="shape=partialRectangle;html=1;whiteSpace=wrap;connectable=0;strokeColor=inherit;overflow=hidden;fillColor=#FFFFFF;top=0;left=0;bottom=0;right=0;pointerEvents=1;" vertex="1" parent="EYCL_kgDiC81q_rOXNcm-552">
          <mxGeometry x="20" width="20" height="20" as="geometry">
            <mxRectangle width="20" height="20" as="alternateBounds" />
          </mxGeometry>
        </mxCell>
        <mxCell id="EYCL_kgDiC81q_rOXNcm-555" value="&lt;font style=&quot;font-size: 8px;&quot;&gt;has / is of&lt;/font&gt;" style="text;html=1;align=center;verticalAlign=middle;resizable=0;points=[];autosize=1;strokeColor=none;fillColor=none;fontStyle=1" vertex="1" parent="1">
          <mxGeometry x="2250" y="220" width="60" height="30" as="geometry" />
        </mxCell>
        <mxCell id="EYCL_kgDiC81q_rOXNcm-556" value="" style="endArrow=blockThin;startArrow=blockThin;html=1;rounded=0;jumpSize=6;strokeColor=#990099;startFill=1;endFill=1;" edge="1" parent="1">
          <mxGeometry width="50" height="50" relative="1" as="geometry">
            <mxPoint x="2280" y="200" as="sourcePoint" />
            <mxPoint x="2300" y="200" as="targetPoint" />
          </mxGeometry>
        </mxCell>
        <mxCell id="EYCL_kgDiC81q_rOXNcm-557" value="" style="shape=table;startSize=0;container=1;collapsible=0;childLayout=tableLayout;fillColor=#FFFFFF;" vertex="1" parent="1">
          <mxGeometry x="2240" y="270" width="40" height="20" as="geometry" />
        </mxCell>
        <mxCell id="EYCL_kgDiC81q_rOXNcm-558" value="" style="shape=tableRow;horizontal=0;startSize=0;swimlaneHead=0;swimlaneBody=0;strokeColor=inherit;top=0;left=0;bottom=0;right=0;collapsible=0;dropTarget=0;fillColor=#FFFFFF;points=[[0,0.5],[1,0.5]];portConstraint=eastwest;" vertex="1" parent="EYCL_kgDiC81q_rOXNcm-557">
          <mxGeometry width="40" height="20" as="geometry" />
        </mxCell>
        <mxCell id="EYCL_kgDiC81q_rOXNcm-559" value="" style="shape=partialRectangle;html=1;whiteSpace=wrap;connectable=0;strokeColor=inherit;overflow=hidden;fillColor=#FFFFFF;top=0;left=0;bottom=0;right=0;pointerEvents=1;" vertex="1" parent="EYCL_kgDiC81q_rOXNcm-558">
          <mxGeometry width="20" height="20" as="geometry">
            <mxRectangle width="20" height="20" as="alternateBounds" />
          </mxGeometry>
        </mxCell>
        <mxCell id="EYCL_kgDiC81q_rOXNcm-560" value="" style="shape=partialRectangle;html=1;whiteSpace=wrap;connectable=0;strokeColor=inherit;overflow=hidden;fillColor=#FFFFFF;top=0;left=0;bottom=0;right=0;pointerEvents=1;" vertex="1" parent="EYCL_kgDiC81q_rOXNcm-558">
          <mxGeometry x="20" width="20" height="20" as="geometry">
            <mxRectangle width="20" height="20" as="alternateBounds" />
          </mxGeometry>
        </mxCell>
        <mxCell id="EYCL_kgDiC81q_rOXNcm-561" value="&lt;font style=&quot;font-size: 8px;&quot;&gt;has / is of&lt;/font&gt;" style="text;html=1;align=center;verticalAlign=middle;resizable=0;points=[];autosize=1;strokeColor=none;fillColor=none;fontStyle=1" vertex="1" parent="1">
          <mxGeometry x="2230" y="280" width="60" height="30" as="geometry" />
        </mxCell>
        <mxCell id="EYCL_kgDiC81q_rOXNcm-562" value="" style="endArrow=blockThin;startArrow=blockThin;html=1;rounded=0;jumpSize=6;strokeColor=#990099;startFill=1;endFill=1;" edge="1" parent="1">
          <mxGeometry width="50" height="50" relative="1" as="geometry">
            <mxPoint x="2260" y="260" as="sourcePoint" />
            <mxPoint x="2280" y="260" as="targetPoint" />
          </mxGeometry>
        </mxCell>
        <mxCell id="EYCL_kgDiC81q_rOXNcm-563" value="" style="shape=table;startSize=0;container=1;collapsible=0;childLayout=tableLayout;fillColor=#FFFFFF;" vertex="1" parent="1">
          <mxGeometry x="2240" y="350" width="40" height="20" as="geometry" />
        </mxCell>
        <mxCell id="EYCL_kgDiC81q_rOXNcm-564" value="" style="shape=tableRow;horizontal=0;startSize=0;swimlaneHead=0;swimlaneBody=0;strokeColor=inherit;top=0;left=0;bottom=0;right=0;collapsible=0;dropTarget=0;fillColor=#FFFFFF;points=[[0,0.5],[1,0.5]];portConstraint=eastwest;" vertex="1" parent="EYCL_kgDiC81q_rOXNcm-563">
          <mxGeometry width="40" height="20" as="geometry" />
        </mxCell>
        <mxCell id="EYCL_kgDiC81q_rOXNcm-565" value="" style="shape=partialRectangle;html=1;whiteSpace=wrap;connectable=0;strokeColor=inherit;overflow=hidden;fillColor=#FFFFFF;top=0;left=0;bottom=0;right=0;pointerEvents=1;" vertex="1" parent="EYCL_kgDiC81q_rOXNcm-564">
          <mxGeometry width="20" height="20" as="geometry">
            <mxRectangle width="20" height="20" as="alternateBounds" />
          </mxGeometry>
        </mxCell>
        <mxCell id="EYCL_kgDiC81q_rOXNcm-566" value="" style="shape=partialRectangle;html=1;whiteSpace=wrap;connectable=0;strokeColor=inherit;overflow=hidden;fillColor=#FFFFFF;top=0;left=0;bottom=0;right=0;pointerEvents=1;" vertex="1" parent="EYCL_kgDiC81q_rOXNcm-564">
          <mxGeometry x="20" width="20" height="20" as="geometry">
            <mxRectangle width="20" height="20" as="alternateBounds" />
          </mxGeometry>
        </mxCell>
        <mxCell id="EYCL_kgDiC81q_rOXNcm-567" value="&lt;font style=&quot;font-size: 8px;&quot;&gt;has / is of&lt;/font&gt;" style="text;html=1;align=center;verticalAlign=middle;resizable=0;points=[];autosize=1;strokeColor=none;fillColor=none;fontStyle=1" vertex="1" parent="1">
          <mxGeometry x="2230" y="360" width="60" height="30" as="geometry" />
        </mxCell>
        <mxCell id="EYCL_kgDiC81q_rOXNcm-568" value="" style="endArrow=blockThin;startArrow=blockThin;html=1;rounded=0;jumpSize=6;strokeColor=#990099;startFill=1;endFill=1;" edge="1" parent="1">
          <mxGeometry width="50" height="50" relative="1" as="geometry">
            <mxPoint x="2260" y="340" as="sourcePoint" />
            <mxPoint x="2280" y="340" as="targetPoint" />
          </mxGeometry>
        </mxCell>
        <mxCell id="EYCL_kgDiC81q_rOXNcm-569" value="" style="shape=table;startSize=0;container=1;collapsible=0;childLayout=tableLayout;fillColor=#FFFFFF;" vertex="1" parent="1">
          <mxGeometry x="2250" y="400" width="40" height="20" as="geometry" />
        </mxCell>
        <mxCell id="EYCL_kgDiC81q_rOXNcm-570" value="" style="shape=tableRow;horizontal=0;startSize=0;swimlaneHead=0;swimlaneBody=0;strokeColor=inherit;top=0;left=0;bottom=0;right=0;collapsible=0;dropTarget=0;fillColor=#FFFFFF;points=[[0,0.5],[1,0.5]];portConstraint=eastwest;" vertex="1" parent="EYCL_kgDiC81q_rOXNcm-569">
          <mxGeometry width="40" height="20" as="geometry" />
        </mxCell>
        <mxCell id="EYCL_kgDiC81q_rOXNcm-571" value="" style="shape=partialRectangle;html=1;whiteSpace=wrap;connectable=0;strokeColor=inherit;overflow=hidden;fillColor=#FFFFFF;top=0;left=0;bottom=0;right=0;pointerEvents=1;" vertex="1" parent="EYCL_kgDiC81q_rOXNcm-570">
          <mxGeometry width="20" height="20" as="geometry">
            <mxRectangle width="20" height="20" as="alternateBounds" />
          </mxGeometry>
        </mxCell>
        <mxCell id="EYCL_kgDiC81q_rOXNcm-572" value="" style="shape=partialRectangle;html=1;whiteSpace=wrap;connectable=0;strokeColor=inherit;overflow=hidden;fillColor=#FFFFFF;top=0;left=0;bottom=0;right=0;pointerEvents=1;" vertex="1" parent="EYCL_kgDiC81q_rOXNcm-570">
          <mxGeometry x="20" width="20" height="20" as="geometry">
            <mxRectangle width="20" height="20" as="alternateBounds" />
          </mxGeometry>
        </mxCell>
        <mxCell id="EYCL_kgDiC81q_rOXNcm-573" value="&lt;font style=&quot;font-size: 8px;&quot;&gt;has / is of&lt;/font&gt;" style="text;html=1;align=center;verticalAlign=middle;resizable=0;points=[];autosize=1;strokeColor=none;fillColor=none;fontStyle=1" vertex="1" parent="1">
          <mxGeometry x="2240" y="410" width="60" height="30" as="geometry" />
        </mxCell>
        <mxCell id="EYCL_kgDiC81q_rOXNcm-574" value="" style="endArrow=blockThin;startArrow=blockThin;html=1;rounded=0;jumpSize=6;strokeColor=#990099;startFill=1;endFill=1;" edge="1" parent="1">
          <mxGeometry width="50" height="50" relative="1" as="geometry">
            <mxPoint x="2270" y="390" as="sourcePoint" />
            <mxPoint x="2290" y="390" as="targetPoint" />
          </mxGeometry>
        </mxCell>
        <mxCell id="EYCL_kgDiC81q_rOXNcm-611" value="" style="shape=table;startSize=0;container=1;collapsible=0;childLayout=tableLayout;fillColor=#FFFFFF;" vertex="1" parent="1">
          <mxGeometry x="2005" y="550" width="20" height="40" as="geometry" />
        </mxCell>
        <mxCell id="EYCL_kgDiC81q_rOXNcm-612" value="" style="shape=tableRow;horizontal=0;startSize=0;swimlaneHead=0;swimlaneBody=0;strokeColor=inherit;top=0;left=0;bottom=0;right=0;collapsible=0;dropTarget=0;fillColor=none;points=[[0,0.5],[1,0.5]];portConstraint=eastwest;" vertex="1" parent="EYCL_kgDiC81q_rOXNcm-611">
          <mxGeometry width="20" height="20" as="geometry" />
        </mxCell>
        <mxCell id="EYCL_kgDiC81q_rOXNcm-613" value="" style="shape=partialRectangle;html=1;whiteSpace=wrap;connectable=0;strokeColor=inherit;overflow=hidden;fillColor=none;top=0;left=0;bottom=0;right=0;pointerEvents=1;" vertex="1" parent="EYCL_kgDiC81q_rOXNcm-612">
          <mxGeometry width="20" height="20" as="geometry">
            <mxRectangle width="20" height="20" as="alternateBounds" />
          </mxGeometry>
        </mxCell>
        <mxCell id="EYCL_kgDiC81q_rOXNcm-614" value="" style="shape=tableRow;horizontal=0;startSize=0;swimlaneHead=0;swimlaneBody=0;strokeColor=inherit;top=0;left=0;bottom=0;right=0;collapsible=0;dropTarget=0;fillColor=none;points=[[0,0.5],[1,0.5]];portConstraint=eastwest;" vertex="1" parent="EYCL_kgDiC81q_rOXNcm-611">
          <mxGeometry y="20" width="20" height="20" as="geometry" />
        </mxCell>
        <mxCell id="EYCL_kgDiC81q_rOXNcm-615" value="" style="shape=partialRectangle;html=1;whiteSpace=wrap;connectable=0;strokeColor=inherit;overflow=hidden;fillColor=none;top=0;left=0;bottom=0;right=0;pointerEvents=1;" vertex="1" parent="EYCL_kgDiC81q_rOXNcm-614">
          <mxGeometry width="20" height="20" as="geometry">
            <mxRectangle width="20" height="20" as="alternateBounds" />
          </mxGeometry>
        </mxCell>
        <mxCell id="EYCL_kgDiC81q_rOXNcm-616" value="&lt;font style=&quot;font-size: 8px;&quot;&gt;has / is of&lt;/font&gt;" style="text;html=1;align=center;verticalAlign=middle;resizable=0;points=[];autosize=1;strokeColor=none;fillColor=none;fontStyle=1;rotation=-90;" vertex="1" parent="1">
          <mxGeometry x="2000" y="555" width="60" height="30" as="geometry" />
        </mxCell>
        <mxCell id="EYCL_kgDiC81q_rOXNcm-618" value="" style="endArrow=blockThin;startArrow=blockThin;html=1;rounded=0;jumpSize=6;strokeColor=#990099;startFill=1;endFill=1;" edge="1" parent="1">
          <mxGeometry width="50" height="50" relative="1" as="geometry">
            <mxPoint x="1995" y="570" as="sourcePoint" />
            <mxPoint x="1995" y="590" as="targetPoint" />
          </mxGeometry>
        </mxCell>
        <mxCell id="EYCL_kgDiC81q_rOXNcm-619" value="" style="shape=table;startSize=0;container=1;collapsible=0;childLayout=tableLayout;fillColor=#FFFFFF;" vertex="1" parent="1">
          <mxGeometry x="2007.5" y="630" width="20" height="40" as="geometry" />
        </mxCell>
        <mxCell id="EYCL_kgDiC81q_rOXNcm-620" value="" style="shape=tableRow;horizontal=0;startSize=0;swimlaneHead=0;swimlaneBody=0;strokeColor=inherit;top=0;left=0;bottom=0;right=0;collapsible=0;dropTarget=0;fillColor=none;points=[[0,0.5],[1,0.5]];portConstraint=eastwest;" vertex="1" parent="EYCL_kgDiC81q_rOXNcm-619">
          <mxGeometry width="20" height="20" as="geometry" />
        </mxCell>
        <mxCell id="EYCL_kgDiC81q_rOXNcm-621" value="" style="shape=partialRectangle;html=1;whiteSpace=wrap;connectable=0;strokeColor=inherit;overflow=hidden;fillColor=none;top=0;left=0;bottom=0;right=0;pointerEvents=1;" vertex="1" parent="EYCL_kgDiC81q_rOXNcm-620">
          <mxGeometry width="20" height="20" as="geometry">
            <mxRectangle width="20" height="20" as="alternateBounds" />
          </mxGeometry>
        </mxCell>
        <mxCell id="EYCL_kgDiC81q_rOXNcm-622" value="" style="shape=tableRow;horizontal=0;startSize=0;swimlaneHead=0;swimlaneBody=0;strokeColor=inherit;top=0;left=0;bottom=0;right=0;collapsible=0;dropTarget=0;fillColor=none;points=[[0,0.5],[1,0.5]];portConstraint=eastwest;" vertex="1" parent="EYCL_kgDiC81q_rOXNcm-619">
          <mxGeometry y="20" width="20" height="20" as="geometry" />
        </mxCell>
        <mxCell id="EYCL_kgDiC81q_rOXNcm-623" value="" style="shape=partialRectangle;html=1;whiteSpace=wrap;connectable=0;strokeColor=inherit;overflow=hidden;fillColor=none;top=0;left=0;bottom=0;right=0;pointerEvents=1;" vertex="1" parent="EYCL_kgDiC81q_rOXNcm-622">
          <mxGeometry width="20" height="20" as="geometry">
            <mxRectangle width="20" height="20" as="alternateBounds" />
          </mxGeometry>
        </mxCell>
        <mxCell id="EYCL_kgDiC81q_rOXNcm-624" value="&lt;font style=&quot;font-size: 8px;&quot;&gt;has / is of&lt;/font&gt;" style="text;html=1;align=center;verticalAlign=middle;resizable=0;points=[];autosize=1;strokeColor=none;fillColor=none;fontStyle=1;rotation=-90;" vertex="1" parent="1">
          <mxGeometry x="2002.5" y="635" width="60" height="30" as="geometry" />
        </mxCell>
        <mxCell id="EYCL_kgDiC81q_rOXNcm-625" value="" style="endArrow=blockThin;startArrow=blockThin;html=1;rounded=0;jumpSize=6;strokeColor=#990099;startFill=1;endFill=1;" edge="1" parent="1">
          <mxGeometry width="50" height="50" relative="1" as="geometry">
            <mxPoint x="1997.5" y="630" as="sourcePoint" />
            <mxPoint x="1997.5" y="650" as="targetPoint" />
          </mxGeometry>
        </mxCell>
        <mxCell id="EYCL_kgDiC81q_rOXNcm-632" value="" style="shape=table;startSize=0;container=1;collapsible=0;childLayout=tableLayout;fillColor=#FFFFFF;" vertex="1" parent="1">
          <mxGeometry x="2007.5" y="725" width="20" height="40" as="geometry" />
        </mxCell>
        <mxCell id="EYCL_kgDiC81q_rOXNcm-633" value="" style="shape=tableRow;horizontal=0;startSize=0;swimlaneHead=0;swimlaneBody=0;strokeColor=inherit;top=0;left=0;bottom=0;right=0;collapsible=0;dropTarget=0;fillColor=none;points=[[0,0.5],[1,0.5]];portConstraint=eastwest;" vertex="1" parent="EYCL_kgDiC81q_rOXNcm-632">
          <mxGeometry width="20" height="20" as="geometry" />
        </mxCell>
        <mxCell id="EYCL_kgDiC81q_rOXNcm-634" value="" style="shape=partialRectangle;html=1;whiteSpace=wrap;connectable=0;strokeColor=inherit;overflow=hidden;fillColor=none;top=0;left=0;bottom=0;right=0;pointerEvents=1;" vertex="1" parent="EYCL_kgDiC81q_rOXNcm-633">
          <mxGeometry width="20" height="20" as="geometry">
            <mxRectangle width="20" height="20" as="alternateBounds" />
          </mxGeometry>
        </mxCell>
        <mxCell id="EYCL_kgDiC81q_rOXNcm-635" value="" style="shape=tableRow;horizontal=0;startSize=0;swimlaneHead=0;swimlaneBody=0;strokeColor=inherit;top=0;left=0;bottom=0;right=0;collapsible=0;dropTarget=0;fillColor=none;points=[[0,0.5],[1,0.5]];portConstraint=eastwest;" vertex="1" parent="EYCL_kgDiC81q_rOXNcm-632">
          <mxGeometry y="20" width="20" height="20" as="geometry" />
        </mxCell>
        <mxCell id="EYCL_kgDiC81q_rOXNcm-636" value="" style="shape=partialRectangle;html=1;whiteSpace=wrap;connectable=0;strokeColor=inherit;overflow=hidden;fillColor=none;top=0;left=0;bottom=0;right=0;pointerEvents=1;" vertex="1" parent="EYCL_kgDiC81q_rOXNcm-635">
          <mxGeometry width="20" height="20" as="geometry">
            <mxRectangle width="20" height="20" as="alternateBounds" />
          </mxGeometry>
        </mxCell>
        <mxCell id="EYCL_kgDiC81q_rOXNcm-637" value="&lt;font style=&quot;font-size: 8px;&quot;&gt;has / is of&lt;/font&gt;" style="text;html=1;align=center;verticalAlign=middle;resizable=0;points=[];autosize=1;strokeColor=none;fillColor=none;fontStyle=1;rotation=-90;" vertex="1" parent="1">
          <mxGeometry x="2002.5" y="730" width="60" height="30" as="geometry" />
        </mxCell>
        <mxCell id="EYCL_kgDiC81q_rOXNcm-638" value="" style="endArrow=blockThin;startArrow=blockThin;html=1;rounded=0;jumpSize=6;strokeColor=#990099;startFill=1;endFill=1;" edge="1" parent="1">
          <mxGeometry width="50" height="50" relative="1" as="geometry">
            <mxPoint x="1997.5" y="725" as="sourcePoint" />
            <mxPoint x="1997.5" y="745" as="targetPoint" />
          </mxGeometry>
        </mxCell>
        <mxCell id="EYCL_kgDiC81q_rOXNcm-639" value="" style="endArrow=blockThin;startArrow=blockThin;html=1;rounded=0;jumpSize=6;strokeColor=#990099;startFill=1;endFill=1;" edge="1" parent="1">
          <mxGeometry width="50" height="50" relative="1" as="geometry">
            <mxPoint x="1997.5" y="745" as="sourcePoint" />
            <mxPoint x="1997.5" y="765" as="targetPoint" />
          </mxGeometry>
        </mxCell>
        <mxCell id="EYCL_kgDiC81q_rOXNcm-640" value="" style="shape=table;startSize=0;container=1;collapsible=0;childLayout=tableLayout;fillColor=#FFFFFF;" vertex="1" parent="1">
          <mxGeometry x="2005" y="800" width="20" height="40" as="geometry" />
        </mxCell>
        <mxCell id="EYCL_kgDiC81q_rOXNcm-641" value="" style="shape=tableRow;horizontal=0;startSize=0;swimlaneHead=0;swimlaneBody=0;strokeColor=inherit;top=0;left=0;bottom=0;right=0;collapsible=0;dropTarget=0;fillColor=none;points=[[0,0.5],[1,0.5]];portConstraint=eastwest;" vertex="1" parent="EYCL_kgDiC81q_rOXNcm-640">
          <mxGeometry width="20" height="20" as="geometry" />
        </mxCell>
        <mxCell id="EYCL_kgDiC81q_rOXNcm-642" value="" style="shape=partialRectangle;html=1;whiteSpace=wrap;connectable=0;strokeColor=inherit;overflow=hidden;fillColor=none;top=0;left=0;bottom=0;right=0;pointerEvents=1;" vertex="1" parent="EYCL_kgDiC81q_rOXNcm-641">
          <mxGeometry width="20" height="20" as="geometry">
            <mxRectangle width="20" height="20" as="alternateBounds" />
          </mxGeometry>
        </mxCell>
        <mxCell id="EYCL_kgDiC81q_rOXNcm-643" value="" style="shape=tableRow;horizontal=0;startSize=0;swimlaneHead=0;swimlaneBody=0;strokeColor=inherit;top=0;left=0;bottom=0;right=0;collapsible=0;dropTarget=0;fillColor=none;points=[[0,0.5],[1,0.5]];portConstraint=eastwest;" vertex="1" parent="EYCL_kgDiC81q_rOXNcm-640">
          <mxGeometry y="20" width="20" height="20" as="geometry" />
        </mxCell>
        <mxCell id="EYCL_kgDiC81q_rOXNcm-644" value="" style="shape=partialRectangle;html=1;whiteSpace=wrap;connectable=0;strokeColor=inherit;overflow=hidden;fillColor=none;top=0;left=0;bottom=0;right=0;pointerEvents=1;" vertex="1" parent="EYCL_kgDiC81q_rOXNcm-643">
          <mxGeometry width="20" height="20" as="geometry">
            <mxRectangle width="20" height="20" as="alternateBounds" />
          </mxGeometry>
        </mxCell>
        <mxCell id="EYCL_kgDiC81q_rOXNcm-645" value="&lt;font style=&quot;font-size: 8px;&quot;&gt;has / is of&lt;/font&gt;" style="text;html=1;align=center;verticalAlign=middle;resizable=0;points=[];autosize=1;strokeColor=none;fillColor=none;fontStyle=1;rotation=-90;" vertex="1" parent="1">
          <mxGeometry x="2000" y="805" width="60" height="30" as="geometry" />
        </mxCell>
        <mxCell id="EYCL_kgDiC81q_rOXNcm-646" value="" style="endArrow=blockThin;startArrow=blockThin;html=1;rounded=0;jumpSize=6;strokeColor=#990099;startFill=1;endFill=1;" edge="1" parent="1">
          <mxGeometry width="50" height="50" relative="1" as="geometry">
            <mxPoint x="1995" y="800" as="sourcePoint" />
            <mxPoint x="1995" y="840" as="targetPoint" />
          </mxGeometry>
        </mxCell>
        <mxCell id="EYCL_kgDiC81q_rOXNcm-676" value="&lt;div&gt;Check&lt;/div&gt;&lt;div&gt;(checkID)&lt;br&gt;&lt;/div&gt;" style="ellipse;whiteSpace=wrap;html=1;fontStyle=1;" vertex="1" parent="1">
          <mxGeometry x="1330" y="130" width="140" height="60" as="geometry" />
        </mxCell>
        <mxCell id="EYCL_kgDiC81q_rOXNcm-680" style="edgeStyle=none;rounded=0;orthogonalLoop=1;jettySize=auto;html=1;exitX=0.5;exitY=1;exitDx=0;exitDy=0;endArrow=oval;endFill=1;" edge="1" parent="1" source="EYCL_kgDiC81q_rOXNcm-678" target="EYCL_kgDiC81q_rOXNcm-676">
          <mxGeometry relative="1" as="geometry" />
        </mxCell>
        <mxCell id="EYCL_kgDiC81q_rOXNcm-678" value="&lt;div&gt;Person&lt;/div&gt;&lt;div&gt;(personID)&lt;br&gt;&lt;/div&gt;" style="ellipse;whiteSpace=wrap;html=1;fontStyle=1;" vertex="1" parent="1">
          <mxGeometry x="1370" y="10" width="140" height="60" as="geometry" />
        </mxCell>
        <mxCell id="EYCL_kgDiC81q_rOXNcm-681" style="edgeStyle=none;rounded=0;orthogonalLoop=1;jettySize=auto;html=1;exitX=0;exitY=1;exitDx=0;exitDy=0;entryX=1;entryY=0;entryDx=0;entryDy=0;endArrow=oval;endFill=1;" edge="1" parent="1" source="EYCL_kgDiC81q_rOXNcm-679" target="EYCL_kgDiC81q_rOXNcm-676">
          <mxGeometry relative="1" as="geometry" />
        </mxCell>
        <mxCell id="EYCL_kgDiC81q_rOXNcm-679" value="checkAmount" style="ellipse;whiteSpace=wrap;html=1;fontStyle=1;dashed=1;" vertex="1" parent="1">
          <mxGeometry x="1530" y="50" width="140" height="60" as="geometry" />
        </mxCell>
      </root>
    </mxGraphModel>
  </diagram>
</mxfile>
